<?xml version="1.0" encoding="utf-8"?>
<!-- Generator: Adobe Illustrator 24.1.0, SVG Export Plug-In . SVG Version: 6.00 Build 0)  -->
<svg version="1.1" id="Ebene_1" xmlns="http://www.w3.org/2000/svg" xmlns:xlink="http://www.w3.org/1999/xlink" x="0px" y="0px"
	 viewBox="0 0 2125 2436" style="enable-background:new 0 0 2125 2436;" xml:space="preserve">
<style type="text/css">
	.st0{fill:#6C6B86;}
	.st1{fill:#B2A1A1;}
	.st2{fill:#FFFFFF;}
</style>
<g>
	<polygon class="st0" points="278.06,938.43 3.14,809.98 272.32,669.9 309.53,368.73 525.94,581.45 823.86,523.77 688.42,795.33 
		835.34,1060.84 535.23,1015.95 328.11,1237.73 	"/>
	<path d="M309.9,369.8l215.5,211.83l0.37,0.37l0.52-0.1l296.67-57.44L688.09,794.87l-0.23,0.47l0.25,0.46l146.3,264.4l-298.85-44.7
		l-0.52-0.08l-0.36,0.38l-206.25,220.84L278.6,938.61l-0.09-0.52l-0.48-0.22L4.27,809.96l268.05-139.5l0.47-0.24l0.06-0.52
		L309.9,369.8 M309.15,367.67l-37.3,301.91L2.01,810l275.61,128.77l50.17,300.04l207.63-222.32l300.86,45L688.99,795.32
		l135.77-272.22L526.1,580.91L309.15,367.67L309.15,367.67z"/>
</g>
<g>
	<polygon points="389.56,974.21 120.64,1039.28 232.57,786.25 87.59,550.59 362.83,578.85 542.15,368.15 600.32,638.65 
		856.13,744.08 616.84,883 595.62,1158.87 	"/>
	<path d="M541.88,369.24l57.9,269.25l0.11,0.51l0.49,0.2L855,744.16L616.82,882.43l-0.45,0.26l-0.04,0.52l-21.13,274.6
		l-205.11-183.8l-0.39-0.35l-0.51,0.12l-267.69,64.76l111.42-251.86l0.21-0.48l-0.28-0.45L88.55,551.19l273.97,28.14l0.52,0.05
		l0.34-0.4L541.88,369.24 M542.43,367.05L362.62,578.33L86.63,549.99l145.37,236.3L119.77,1040l269.66-65.24l206.62,185.15
		l21.28-276.62l239.94-139.29l-256.5-105.72L542.43,367.05L542.43,367.05z"/>
</g>
<g>
	<polygon class="st1" points="333.41,871.25 144.93,774.4 336.45,683.71 370.32,474.53 515.76,628.65 725.17,596.22 623.53,782.16 
		719.08,971.3 510.83,932.1 360.48,1081.42 	"/>
	<path d="M370.66,475.61l144.56,153.2l0.36,0.38l0.52-0.08l208.15-32.23L623.21,781.69l-0.25,0.46l0.24,0.47l94.98,188
		l-206.99-38.97l-0.52-0.1l-0.37,0.37l-149.45,148.42l-26.9-208.91l-0.07-0.52l-0.47-0.24l-187.34-96.27l190.37-90.14l0.48-0.22
		l0.08-0.52L370.66,475.61 M369.99,473.45L336,683.37l-192.2,91.01l189.14,97.2l27.16,210.91L511,932.64l208.99,39.34l-95.89-189.81
		l102-186.6l-210.15,32.54L369.99,473.45L369.99,473.45z"/>
</g>
<g>
	<polygon class="st2" points="417.44,837.27 303.93,826.12 381.83,742.8 357.35,631.39 460.67,679.73 559.06,622.03 545.01,735.22 
		630.3,810.97 518.3,832.59 472.62,937.11 	"/>
	<path d="M558.44,622.97L544.55,734.9l-0.06,0.52l0.39,0.35l84.33,74.9l-110.75,21.38l-0.52,0.1l-0.21,0.48l-45.17,103.35
		l-54.55-98.72l-0.25-0.46l-0.52-0.05l-112.25-11.02l77.03-82.39l0.36-0.38l-0.11-0.51l-24.2-110.16l102.16,47.8l0.48,0.22
		l0.45-0.27L558.44,622.97 M559.68,621.08l-99.04,58.08l-104-48.66l24.64,112.14l-78.41,83.87l114.27,11.22l55.53,100.49
		l45.98-105.21l112.73-21.76l-85.85-76.24L559.68,621.08L559.68,621.08z"/>
</g>
<g>
	<polygon class="st0" points="1643.57,1013.22 1341.91,1046.15 1499.27,786.68 1374.74,509.96 1670.13,579.44 1894.83,375.5 
		1920.03,677.9 2183.43,828.58 1903.61,945.99 1841.7,1243.06 	"/>
	<path d="M1894.42,376.55l25.09,301.13l0.04,0.52l0.46,0.26l262.29,150.05l-278.64,116.92l-0.48,0.2l-0.11,0.51l-61.65,295.82
		l-197.3-228.87l-0.34-0.4l-0.52,0.06l-300.39,32.78l156.7-258.37l0.27-0.45l-0.22-0.48l-124-275.56l294.15,69.19l0.51,0.12
		l0.39-0.35L1894.42,376.55 M1895.24,374.44l-225.25,204.45l-296.12-69.65l124.84,277.41l-157.75,260.1l302.41-33l198.63,230.41
		l62.06-297.8l280.51-117.7L1920.51,677.6L1895.24,374.44L1895.24,374.44z"/>
</g>
<g>
	<polygon points="1560.41,886.55 1314.17,760.39 1564.09,641.68 1607.99,368.5 1798.12,569.51 2071.5,526.84 1939.08,769.78 
		2064.14,1016.59 1792.17,965.72 1596.08,1160.93 	"/>
	<path d="M1608.32,369.57l189.25,200.08l0.36,0.38l0.52-0.08l272.12-42.47l-131.81,241.82l-0.25,0.46l0.24,0.47l124.48,245.67
		l-270.72-50.63l-0.52-0.1l-0.37,0.37l-195.18,194.31l-35.5-273.11l-0.07-0.52l-0.47-0.24L1315.3,760.4l248.77-118.16l0.47-0.23
		l0.08-0.52L1608.32,369.57 M1607.66,367.42l-44.02,273.92l-250.6,119.03l246.91,126.51l35.77,275.12l196.62-195.74l272.71,51
		l-125.4-247.48l132.78-243.6l-274.12,42.79L1607.66,367.42L1607.66,367.42z"/>
</g>
<g>
	<polygon class="st1" points="1679.79,933.76 1468.42,948.81 1585.05,771.89 1505.41,575.51 1709.72,631.75 1871.87,495.33 
		1881.52,707.02 2061.37,819.08 1863.03,893.67 1812.02,1099.35 	"/>
	<path d="M1871.42,496.37l9.59,210.41l0.02,0.53l0.45,0.28l178.77,111.39l-197.15,74.14l-0.49,0.19l-0.13,0.51l-50.69,204.44
		l-131.43-164.59l-0.33-0.41l-0.52,0.04l-210.1,14.96l115.92-175.86l0.29-0.44l-0.2-0.49l-79.15-195.19l203.08,55.9l0.51,0.14
		l0.4-0.34L1871.42,496.37 M1872.33,494.3L1709.6,631.2l-205.03-56.44l79.92,197.07l-117.04,177.55l212.12-15.11l132.7,166.17
		l51.18-206.41l199.05-74.85l-180.49-112.46L1872.33,494.3L1872.33,494.3z"/>
</g>
<g>
	<polygon class="st2" points="1750.38,863.23 1647.56,912.62 1670.9,800.97 1592.15,718.45 1705.55,706.14 1759.69,605.74 
		1806.44,709.79 1918.66,730.26 1834.15,806.87 1849.36,919.92 	"/>
	<path d="M1759.65,606.87l46.23,102.88l0.22,0.48l0.52,0.09l110.96,20.24l-83.56,75.76l-0.39,0.35l0.07,0.52l15.04,111.78
		l-97.87-56.06l-0.46-0.26l-0.47,0.23l-101.67,48.84l23.07-110.4l0.11-0.51l-0.36-0.38l-77.87-81.6l112.13-12.17l0.52-0.06
		l0.25-0.46L1759.65,606.87 M1759.73,604.61l-54.5,101.06l-114.15,12.39l79.27,83.06l-23.49,112.39l103.49-49.72l99.63,57.07
		l-15.31-113.79l85.06-77.12l-112.95-20.61L1759.73,604.61L1759.73,604.61z"/>
</g>
<g>
	<polygon class="st0" points="940.19,624.59 639.25,585.61 853.24,370.46 797.32,72.2 1068.07,209.24 1334.45,63.89 1287.79,363.73 
		1508.34,572.16 1208.75,620.44 1078.68,894.6 	"/>
	<path d="M1333.8,64.81l-46.47,298.58l-0.08,0.52l0.38,0.36l219.62,207.55l-298.33,48.08l-0.52,0.08l-0.23,0.48l-129.52,273.01
		L940.75,624.6l-0.24-0.47l-0.52-0.07l-299.67-38.82L853.41,371l0.37-0.37l-0.1-0.52L798,73.11l269.61,136.46l0.47,0.24l0.46-0.25
		L1333.8,64.81 M1335.1,62.96l-267.04,145.71L796.64,71.3l56.06,298.99L638.18,585.98l301.68,39.08l138.84,270.67l130.39-274.84
		l300.33-48.4l-221.1-208.94L1335.1,62.96L1335.1,62.96z"/>
</g>
<g>
	<polygon points="850.67,493.38 641.02,312.82 911.86,256.25 1018.8,1.06 1156.3,241.17 1432.04,264.02 1246.18,468.98 
		1309.66,738.29 1057.29,624.86 820.78,768.45 	"/>
	<path d="M1018.87,2.19l136.86,239l0.26,0.46l0.52,0.04l274.47,22.75l-185.01,204.02l-0.35,0.39l0.12,0.51l63.18,268.06
		l-251.2-112.91l-0.48-0.22l-0.45,0.27L821.38,767.5l29.75-273.8l0.06-0.52l-0.4-0.34L642.12,313.1l269.59-56.31l0.51-0.11l0.2-0.48
		L1018.87,2.19 M1018.74-0.06L911.5,255.81l-271.58,56.72l210.22,181.05L820.17,769.4l237.15-143.98l253.05,113.74l-63.65-270.04
		l186.37-205.52l-276.49-22.91L1018.74-0.06L1018.74-0.06z"/>
</g>
<g>
	<polygon class="st1" points="972.54,543.78 763.56,508.68 918.54,364.16 887.35,154.56 1072.69,257.3 1262.39,162.86 
		1221.96,370.88 1370.39,522.11 1160.06,547.93 1062.1,735.84 	"/>
	<path d="M887.99,155.49l184.22,102.12l0.46,0.25l0.47-0.23l188.56-93.87l-40.19,206.76l-0.1,0.52l0.37,0.38l147.54,150.32
		l-209.06,25.67l-0.52,0.06l-0.24,0.47l-97.37,186.77l-89.02-190.9l-0.22-0.48l-0.52-0.09l-207.72-34.89l154.05-143.65l0.38-0.36
		l-0.08-0.52L887.99,155.49 M886.71,153.63l31.3,210.34L762.48,509.01l209.72,35.23l89.87,192.73l98.31-188.57l211.07-25.92
		L1222.5,370.71l40.58-208.75l-190.37,94.77L886.71,153.63L886.71,153.63z"/>
</g>
<g>
	<polygon class="st2" points="1042.31,485.91 930.76,509.73 979.71,406.7 922.58,307.97 1035.69,322.69 1111.94,237.85 
		1132.9,349.97 1237.15,396.27 1136.99,450.85 1125.17,564.3 	"/>
	<path d="M1111.64,238.94l20.72,110.87l0.1,0.52l0.48,0.21l103.08,45.78l-99.04,53.97l-0.46,0.25l-0.05,0.52l-11.69,112.18
		l-81.93-77.51l-0.38-0.36l-0.51,0.11l-110.3,23.55l48.4-101.88l0.23-0.47l-0.26-0.46l-56.48-97.63l111.85,14.55l0.52,0.07
		l0.35-0.39L1111.64,238.94 M1112.25,236.76l-76.75,85.4l-113.86-14.81l57.5,99.38l-49.27,103.71l112.29-23.97l83.41,78.91
		l11.9-114.2l100.82-54.94l-104.93-46.6L1112.25,236.76L1112.25,236.76z"/>
</g>
<g>
	<polygon class="st0" points="920.71,2010.79 686.28,1818.11 981.81,1749.23 1092.61,1466.73 1249.44,1726.51 1552.35,1744.59 
		1353.75,1974.03 1430.16,2267.7 1150.59,2149.72 894.9,2313.14 	"/>
	<path d="M1092.7,1467.86l156.17,258.69l0.27,0.45l0.52,0.03l301.64,18l-197.77,228.47l-0.34,0.4l0.13,0.51l76.09,292.44
		l-278.4-117.49l-0.48-0.2l-0.44,0.28l-254.61,162.74l25.71-301.08l0.04-0.52l-0.41-0.33l-233.45-191.86l294.29-68.59l0.51-0.12
		l0.19-0.49L1092.7,1467.86 M1092.51,1465.61l-111.07,283.2l-296.26,69.05l235.02,193.15l-25.88,303.1l256.32-163.83l280.27,118.27
		l-76.6-294.4l199.09-230l-303.66-18.12L1092.51,1465.61L1092.51,1465.61z"/>
</g>
<g>
	<polygon points="983.44,2061.42 708.27,2032.48 898.62,1831.67 841.12,1561.03 1090.92,1680.01 1330.54,1541.68 1294.58,1816.02 
		1500.18,2001.18 1228.15,2051.75 1115.6,2304.5 	"/>
	<path d="M1329.91,1542.62l-35.8,273.07l-0.07,0.52l0.39,0.35l204.66,184.3l-270.77,50.34l-0.52,0.1l-0.21,0.48l-112.04,251.59
		l-131.55-241.96l-0.25-0.46l-0.52-0.06l-273.9-28.81l189.47-199.88l0.36-0.38l-0.11-0.51l-57.24-269.4l248.65,118.43l0.47,0.23
		l0.46-0.26L1329.91,1542.62 M1331.17,1540.74l-240.28,138.7l-250.47-119.3l57.66,271.38l-190.87,201.35l275.91,29.02l132.51,243.74
		l112.86-253.44l272.76-50.71l-206.16-185.66L1331.17,1540.74L1331.17,1540.74z"/>
</g>
<g>
	<polygon class="st1" points="991,1959.45 832.47,1818.84 1040.51,1778.53 1125.24,1584.31 1227.86,1769.7 1438.77,1790.27 
		1294.16,1945.16 1339.77,2152.1 1147.77,2062.43 965.05,2169.76 	"/>
	<path d="M1125.29,1585.43l102,184.28l0.25,0.46l0.52,0.05l209.64,20.44l-143.74,153.96l-0.36,0.38l0.11,0.51l45.34,205.69
		l-190.84-89.13l-0.48-0.22l-0.45,0.27l-181.62,106.68l25.8-209.05l0.06-0.52l-0.39-0.35l-157.58-139.76l206.78-40.07l0.52-0.1
		l0.21-0.48L1125.29,1585.43 M1125.19,1583.18l-85.03,194.92l-208.77,40.45l159.1,141.1l-26.04,211.06L1147.8,2063l192.68,89.99
		l-45.77-207.67l145.13-155.44l-211.65-20.64L1125.19,1583.18L1125.19,1583.18z"/>
</g>
<g>
	<polygon class="st2" points="1080.84,1947.39 973.64,1908.41 1069.79,1847.04 1073.73,1733.04 1161.82,1805.51 1271.46,1774.04 
		1229.75,1880.21 1293.56,1974.75 1179.7,1967.89 1109.51,2057.8 	"/>
	<path d="M1074.2,1734.07l87.1,71.66l0.41,0.33l0.51-0.15l108.41-31.12l-41.24,104.98l-0.19,0.49l0.29,0.44l63.1,93.49l-112.59-6.78
		l-0.52-0.03l-0.32,0.41l-69.41,88.9l-28.34-109.17l-0.13-0.51l-0.49-0.18l-106-38.54l95.07-60.69l0.44-0.28l0.02-0.53
		L1074.2,1734.07 M1073.27,1732.01l-3.97,114.75l-96.78,61.78l107.9,39.24l28.85,111.13l70.66-90.5l114.61,6.9l-64.23-95.17
		l41.98-106.87l-110.36,31.68L1073.27,1732.01L1073.27,1732.01z"/>
</g>
<g>
	<polygon class="st0" points="232.51,1670.31 -18.45,1499.71 269.61,1404.29 354.31,1112.9 534.08,1357.38 837.38,1347.88 
		660.42,1594.4 763.17,1879.93 474.04,1787.8 234.24,1973.76 	"/>
	<path d="M354.51,1114.01l179.01,243.45l0.31,0.42l0.53-0.02l302.03-9.45l-176.21,245.48l-0.31,0.43l0.18,0.49l102.32,284.33
		l-287.92-91.73l-0.5-0.16l-0.42,0.32l-238.79,185.17l-1.73-302.17l0-0.53l-0.43-0.3l-249.9-169.88l286.85-95.02l0.5-0.17l0.15-0.5
		L354.51,1114.01 M354.12,1111.79l-84.91,292.11l-288.77,95.66l251.58,171.02l1.74,304.2l240.39-186.41l289.85,92.35l-103.01-286.23
		l177.4-247.12l-304.05,9.51L354.12,1111.79L354.12,1111.79z"/>
</g>
<g>
	<polygon points="336.89,1723.4 61.03,1744.8 211.84,1512.83 106.25,1257.08 373.47,1328.83 584.06,1149.37 598.4,1425.69 
		834.15,1570.52 575.79,1669.55 510.9,1938.51 	"/>
	<path d="M583.62,1150.41l14.27,275.04l0.03,0.53l0.45,0.28l234.66,144.17l-257.17,98.57l-0.49,0.19l-0.12,0.51l-64.59,267.73
		l-173.21-214.12l-0.33-0.41l-0.52,0.04L62,1744.22l150.12-230.9l0.29-0.44l-0.2-0.49l-105.11-254.56l265.99,71.42l0.51,0.14
		l0.4-0.34L583.62,1150.41 M584.51,1148.34l-211.17,179.94l-267.95-71.94l105.88,256.44l-151.22,232.6l276.61-21.46l174.49,215.7
		l65.07-269.7l259.06-99.29L598.89,1425.4L584.51,1148.34L584.51,1148.34z"/>
</g>
<g>
	<polygon class="st1" points="297.85,1612.8 127.21,1487.17 330.73,1428.14 397.48,1227.03 516.51,1402.35 728.41,1403.69 
		598.45,1571.06 662.66,1773.01 463.32,1701.13 291.1,1824.6 	"/>
	<path d="M397.64,1228.15l118.31,174.26l0.3,0.44l0.53,0l210.63,1.33l-129.18,166.37l-0.32,0.42l0.16,0.5l63.82,200.73
		l-198.14-71.44l-0.49-0.18l-0.43,0.31l-171.18,122.73l6.72-210.52l0.02-0.53l-0.42-0.31l-169.62-124.88l202.29-58.67l0.5-0.15
		l0.17-0.5L397.64,1228.15 M397.33,1225.91l-66.99,201.83l-204.24,59.23l171.25,126.08l-6.78,212.55l172.83-123.91l200.05,72.13
		l-64.43-202.66l130.42-167.97l-212.65-1.35L397.33,1225.91L397.33,1225.91z"/>
</g>
<g>
	<polygon class="st2" points="386.22,1592.65 275.93,1563.56 366.11,1493.71 359.69,1379.82 453.99,1444 560.32,1402.71 
		528.42,1512.22 600.55,1600.58 486.54,1604.09 424.79,1700 	"/>
	<path d="M360.25,1380.81l93.24,63.46l0.43,0.3l0.49-0.19l105.14-40.83l-31.54,108.29l-0.15,0.5l0.33,0.41l71.33,87.37l-112.74,3.47
		l-0.53,0.02l-0.28,0.44l-61.06,94.83l-38.13-106.15l-0.18-0.49l-0.51-0.13l-109.06-28.76l89.17-69.07l0.42-0.32l-0.03-0.52
		L360.25,1380.81 M359.13,1378.84l6.46,114.63l-90.77,70.31l111.02,29.28l38.82,108.05l62.15-96.54l114.76-3.53l-72.61-88.94
		l32.11-110.24l-107.03,41.57L359.13,1378.84L359.13,1378.84z"/>
</g>
<g>
	<polygon class="st0" points="1670.31,1763.81 1371.75,1818.05 1510.3,1548.08 1366.46,1280.88 1666.04,1329.23 1875.7,1109.86 
		1922.29,1409.72 2195.71,1541.33 1924.93,1678.3 1884.25,1979.01 	"/>
	<path d="M1875.36,1110.94l46.39,298.59l0.08,0.52l0.47,0.23l272.28,131.06l-269.64,136.39l-0.47,0.24l-0.07,0.52l-40.51,299.45
		l-213.04-214.3l-0.37-0.37l-0.52,0.09l-297.31,54.01l137.98-268.84l0.24-0.47l-0.25-0.46l-143.24-266.07l298.32,48.15l0.52,0.08
		l0.36-0.38L1875.36,1110.94 M1876.04,1108.78l-210.18,219.91l-300.32-48.47l144.2,267.85l-138.9,270.64l299.3-54.37l214.47,215.74
		l40.78-301.46l271.45-137.31l-274.1-131.94L1876.04,1108.78L1876.04,1108.78z"/>
</g>
<g>
	<polygon points="1578.38,1643.36 1323.81,1534.98 1564.68,1398.84 1589.09,1123.23 1793,1310.25 2062.66,1248.29 1947.81,1500.01 
		2090.06,1737.33 1815.17,1705.89 1633.43,1914.51 	"/>
	<path d="M1589.5,1124.28l202.97,186.15l0.39,0.36l0.51-0.12l268.42-61.67l-114.32,250.56l-0.22,0.48l0.27,0.45l141.6,236.22
		l-273.63-31.3l-0.52-0.06l-0.35,0.4l-180.9,207.66l-54.79-269.9l-0.1-0.52l-0.48-0.21l-253.4-107.88l239.76-135.51l0.46-0.26
		l0.05-0.52L1589.5,1124.28 M1588.68,1122.18l-24.47,276.35l-241.53,136.51l255.27,108.67l55.19,271.89l182.24-209.19l275.64,31.53
		l-142.64-237.96l115.16-252.41l-270.39,62.12L1588.68,1122.18L1588.68,1122.18z"/>
</g>
<g>
	<polygon class="st1" points="1700.81,1681.98 1491.04,1711.99 1594.82,1527.23 1501.45,1337 1709.24,1378.61 1861.3,1231.03 
		1885.94,1441.5 2073.29,1540.52 1880.74,1628.99 1844.46,1837.77 	"/>
	<path d="M1860.92,1232.09l24.49,209.2l0.06,0.52l0.46,0.25l186.22,98.42l-191.39,87.94l-0.48,0.22l-0.09,0.52l-36.06,207.52
		l-142.78-154.85l-0.36-0.39l-0.52,0.07l-208.51,29.83l103.15-183.64l0.26-0.46l-0.23-0.47l-92.8-189.08l206.53,41.36l0.52,0.1
		l0.38-0.37L1860.92,1232.09 M1861.68,1229.96l-152.61,148.1l-208.52-41.75l93.69,190.9l-104.14,185.41l210.51-30.12l144.15,156.34
		l36.41-209.52l193.24-88.78l-188.01-99.37L1861.68,1229.96L1861.68,1229.96z"/>
</g>
<g>
	<polygon class="st2" points="1682.83,1552.62 1596.01,1478.64 1707.54,1454.73 1751.07,1349.29 1808.28,1447.98 1922.01,1456.79 
		1845.83,1541.7 1872.59,1652.58 1768.3,1606.37 1671.11,1666.08 	"/>
	<path d="M1751.15,1350.42l56.57,97.58l0.26,0.45l0.52,0.04l112.45,8.72l-75.32,83.95l-0.35,0.39l0.12,0.51l26.46,109.64
		l-103.12-45.69l-0.48-0.21l-0.45,0.28l-96.1,59.04l11.59-112.19l0.05-0.52l-0.4-0.34l-85.85-73.15l110.28-23.65l0.51-0.11l0.2-0.49
		L1751.15,1350.42 M1751,1348.17l-43.82,106.13l-112.26,24.07l87.39,74.47l-11.8,114.21l97.83-60.1l104.97,46.51l-26.93-111.61
		l76.68-85.46l-114.47-8.88L1751,1348.17L1751,1348.17z"/>
</g>
</svg>
