<?xml version="1.0" encoding="utf-8"?>
<!-- Generator: Adobe Illustrator 24.1.0, SVG Export Plug-In . SVG Version: 6.00 Build 0)  -->
<svg version="1.1" id="Ebene_1" xmlns="http://www.w3.org/2000/svg" xmlns:xlink="http://www.w3.org/1999/xlink" x="0px" y="0px"
	 viewBox="0 0 2125 2436" style="enable-background:new 0 0 2125 2436;" xml:space="preserve">
<style type="text/css">
	.st0{fill:#24242D;}
	.st1{fill:#6C6B86;}
	.st2{fill:#66806C;}
	.st3{fill:#908FB2;}
</style>
<g>
	<rect x="482.5" y="429.5" class="st0" width="399" height="366"/>
	<path d="M881,430v365H483V430H881 M882,429H482v367h400V429L882,429z"/>
</g>
<g>
	<rect x="499.5" y="429.5" transform="matrix(0.7071 -0.7071 0.7071 0.7071 -233.2033 661.9975)" width="366" height="366"/>
	<path d="M682.5,354.41L940.59,612.5L682.5,870.59L424.41,612.5L682.5,354.41 M682.5,352.99L422.99,612.5L682.5,872.01L942.01,612.5
		L682.5,352.99L682.5,352.99z"/>
</g>
<g>
	
		<rect x="542.54" y="472.43" transform="matrix(0.7408 -0.6717 0.6717 0.7408 -234.5064 617.3024)" class="st1" width="280.12" height="280.16"/>
	<path d="M692.22,415.36l187.52,206.79l-206.77,187.5L485.45,602.86L692.22,415.36 M692.29,413.95L484.04,602.79l188.86,208.28
		l208.25-188.84L692.29,413.95L692.29,413.95z"/>
</g>
<g>
	<path d="M679.86,728.86c-19.03,0-37.27-8.08-50.05-22.17l-47.56-52.44c-25.01-27.58-22.92-70.38,4.66-95.39l52.36-47.48
		c12.45-11.29,28.55-17.51,45.34-17.51c19.03,0,37.27,8.08,50.05,22.17l47.56,52.44c12.12,13.36,18.31,30.64,17.42,48.66
		c-0.88,18.02-8.72,34.61-22.09,46.73l-52.36,47.48C712.75,722.65,696.65,728.86,679.86,728.86z"/>
	<path d="M684.63,493.37v1h0c18.89,0,36.99,8.02,49.67,22l47.56,52.44c24.83,27.38,22.75,69.86-4.63,94.68l-52.36,47.48
		c-12.36,11.21-28.34,17.38-45.01,17.38c-18.89,0-37-8.02-49.68-22l-47.56-52.44c-24.83-27.38-22.75-69.86,4.63-94.68l52.36-47.48
		c12.36-11.2,28.34-17.38,45.01-17.38L684.63,493.37 M684.62,493.37c-16.3,0-32.65,5.82-45.68,17.64l-52.36,47.48
		c-27.83,25.24-29.94,68.26-4.7,96.1l47.56,52.44c13.43,14.81,31.89,22.33,50.42,22.33c16.3,0,32.65-5.82,45.68-17.64l52.36-47.48
		c27.83-25.24,29.94-68.26,4.7-96.1l-47.56-52.44C721.61,500.9,703.15,493.37,684.62,493.37L684.62,493.37z"/>
</g>
<g>
	<rect x="620.5" y="547.5" class="st2" width="127" height="127"/>
	<path d="M747,548v126H621V548H747 M748,547H620v128h128V547L748,547z"/>
</g>
<g>
	<rect x="1178.5" y="435.5" class="st0" width="399" height="366"/>
	<path d="M1577,436v365h-398V436H1577 M1578,435h-400v367h400V435L1578,435z"/>
</g>
<g>
	<rect x="1213.29" y="435.86" transform="matrix(0.7071 -0.7071 0.7071 0.7071 -28.6364 1168.5796)" width="366" height="366"/>
	<path d="M1396.29,360.76l258.09,258.09l-258.09,258.09l-258.09-258.09L1396.29,360.76 M1396.29,359.35l-259.51,259.51
		l259.51,259.51l259.51-259.51L1396.29,359.35L1396.29,359.35z"/>
</g>
<g>
	
		<rect x="1256.32" y="471.79" transform="matrix(0.7408 -0.6717 0.6717 0.7408 -49.0506 1096.6145)" class="st1" width="280.12" height="280.16"/>
	<path d="M1406.01,414.72l187.52,206.79l-206.77,187.5l-187.52-206.79L1406.01,414.72 M1406.08,413.3l-208.25,188.84l188.86,208.28
		l208.25-188.84L1406.08,413.3L1406.08,413.3z"/>
</g>
<g>
	<path d="M1399.12,756.39c-20.96,0-41.06-8.9-55.13-24.42l-38.34-42.28c-13.35-14.72-20.16-33.76-19.19-53.6
		c0.97-19.85,9.61-38.13,24.33-51.47l42.2-38.27c13.71-12.44,31.45-19.28,49.95-19.28c20.96,0,41.06,8.9,55.13,24.42l38.34,42.28
		c13.35,14.72,20.16,33.76,19.19,53.6c-0.97,19.85-9.61,38.13-24.33,51.47l-42.2,38.27
		C1435.36,749.54,1417.62,756.39,1399.12,756.39z"/>
	<path d="M1402.94,527.56c20.82,0,40.78,8.84,54.75,24.26l38.34,42.28c13.26,14.62,20.03,33.53,19.07,53.24
		c-0.96,19.71-9.55,37.87-24.17,51.13l-42.2,38.27c-13.62,12.35-31.24,19.15-49.61,19.15c-20.82,0-40.78-8.84-54.76-24.26
		l-38.34-42.28c-13.26-14.62-20.03-33.53-19.07-53.24c0.96-19.71,9.55-37.87,24.17-51.13l42.2-38.27
		C1366.94,534.36,1384.56,527.56,1402.94,527.56L1402.94,527.56 M1402.93,526.56c-17.94,0-35.95,6.41-50.28,19.41l-42.2,38.27
		c-30.64,27.78-32.95,75.14-5.17,105.78l38.34,42.28c14.78,16.3,35.1,24.58,55.5,24.58c17.94,0,35.95-6.41,50.28-19.41l42.2-38.27
		c30.64-27.78,32.95-75.14,5.17-105.78l-38.34-42.28C1443.65,534.84,1423.33,526.56,1402.93,526.56L1402.93,526.56z"/>
</g>
<g>
	<rect x="1339.5" y="576.5" class="st2" width="127" height="127"/>
	<path d="M1466,577v126h-126V577H1466 M1467,576h-128v128h128V576L1467,576z"/>
</g>
<g>
	<rect x="831.29" y="793.86" class="st0" width="399" height="366"/>
	<path d="M1229.79,794.36v365h-398v-365H1229.79 M1230.79,793.36h-400v367h400V793.36L1230.79,793.36z"/>
</g>
<g>
	<rect x="848.29" y="793.86" transform="matrix(0.7071 -0.7071 0.7071 0.7071 -388.6857 1015.3425)" width="366" height="366"/>
	<path d="M1031.29,718.76l258.09,258.09l-258.09,258.09L773.19,976.86L1031.29,718.76 M1031.29,717.35L771.78,976.86l259.51,259.51
		l259.51-259.51L1031.29,717.35L1031.29,717.35z"/>
</g>
<g>
	
		<rect x="889.32" y="838.79" transform="matrix(0.7408 -0.6717 0.6717 0.7408 -390.712 945.2187)" class="st3" width="280.12" height="280.16"/>
	<path d="M1039.01,781.72l187.52,206.79l-206.77,187.5L832.24,969.21L1039.01,781.72 M1039.08,780.3L830.83,969.15l188.86,208.28
		l208.25-188.84L1039.08,780.3L1039.08,780.3z"/>
</g>
<g>
	<path d="M1027.19,1085.06c-25.29,0-49.53-10.74-66.5-29.46l-17.72-19.54c-16.1-17.76-24.33-40.72-23.16-64.66
		c1.17-23.94,11.59-46,29.35-62.1l19.46-17.64c16.54-15,37.94-23.26,60.25-23.26c25.29,0,49.53,10.74,66.5,29.46l17.72,19.54
		c16.1,17.76,24.33,40.72,23.16,64.66s-11.59,45.99-29.35,62.1l-19.46,17.64C1070.9,1076.8,1049.5,1085.06,1027.19,1085.06z"/>
	<path d="M1028.87,868.89c25.14,0,49.25,10.68,66.13,29.29l17.72,19.54c33.05,36.45,30.29,93-6.16,126.05l-19.46,17.64
		c-16.45,14.92-37.73,23.13-59.92,23.13c-25.15,0-49.25-10.68-66.13-29.29l-17.72-19.54c-16.01-17.66-24.19-40.49-23.03-64.3
		c1.16-23.81,11.53-45.74,29.19-61.75l19.46-17.64C985.4,877.11,1006.68,868.89,1028.87,868.89L1028.87,868.89 M1028.87,867.89
		c-21.62,0-43.31,7.73-60.59,23.39l-19.46,17.64c-36.92,33.48-39.71,90.55-6.23,127.47l17.72,19.54
		c17.81,19.64,42.3,29.62,66.88,29.62c21.62,0,43.31-7.73,60.59-23.39l19.46-17.64c36.92-33.48,39.71-90.55,6.23-127.47
		l-17.72-19.54C1077.93,877.87,1053.45,867.89,1028.87,867.89L1028.87,867.89z"/>
</g>
<g>
	<rect x="964.5" y="910.5" class="st2" width="127" height="127"/>
	<path d="M1091,911v126H965V911H1091 M1092,910H964v128h128V910L1092,910z"/>
</g>
<g>
	<rect x="846.29" y="80.86" class="st0" width="399" height="366"/>
	<path d="M1244.79,81.36v365h-398v-365H1244.79 M1245.79,80.36h-400v367h400V80.36L1245.79,80.36z"/>
</g>
<g>
	<rect x="863.29" y="80.86" transform="matrix(0.7071 -0.7071 0.7071 0.7071 119.8743 817.1168)" width="366" height="366"/>
	<path d="M1046.29,5.76l258.09,258.09l-258.09,258.09L788.19,263.86L1046.29,5.76 M1046.29,4.35L786.78,263.86l259.51,259.51
		l259.51-259.51L1046.29,4.35L1046.29,4.35z"/>
</g>
<g>
	
		<rect x="906.32" y="123.79" transform="matrix(0.7408 -0.6717 0.6717 0.7408 93.9904 771.2979)" class="st1" width="280.12" height="280.16"/>
	<path d="M1056.01,66.72l187.52,206.79l-206.77,187.5L849.24,254.21L1056.01,66.72 M1056.08,65.3L847.83,254.15l188.86,208.28
		l208.25-188.84L1056.08,65.3L1056.08,65.3z"/>
</g>
<g>
	<path d="M1044.09,365.57c-20.84,0-40.82-8.85-54.81-24.28l-38.92-42.92c-27.39-30.21-25.1-77.07,5.11-104.47l42.84-38.85
		c13.63-12.36,31.27-19.17,49.66-19.17c20.84,0,40.82,8.85,54.81,24.28l38.92,42.92c27.39,30.21,25.1,77.07-5.11,104.47
		l-42.84,38.85C1080.12,358.76,1062.48,365.57,1044.09,365.57z"/>
	<path d="M1047.97,136.38c20.7,0,40.54,8.79,54.43,24.11l38.92,42.92c27.21,30.01,24.93,76.55-5.07,103.76l-42.84,38.85
		c-13.54,12.28-31.06,19.04-49.32,19.04c-20.7,0-40.54-8.79-54.44-24.11l-38.92-42.92c-27.21-30.01-24.93-76.55,5.07-103.76
		l42.84-38.85C1012.18,143.15,1029.7,136.38,1047.97,136.38L1047.97,136.38 M1047.96,135.38c-17.84,0-35.74,6.37-49.99,19.3
		l-42.84,38.85c-30.46,27.62-32.76,74.71-5.14,105.17l38.92,42.92c14.7,16.21,34.9,24.44,55.18,24.44c17.84,0,35.74-6.37,49.99-19.3
		l42.84-38.85c30.46-27.62,32.76-74.71,5.14-105.17l-38.92-42.92C1088.45,143.62,1068.24,135.38,1047.96,135.38L1047.96,135.38z"/>
</g>
<g>
	<rect x="979.5" y="188.5" class="st2" width="127" height="127"/>
	<path d="M1106,189v126H980V189H1106 M1107,188H979v128h128V188L1107,188z"/>
</g>
<g>
	<rect x="455.39" y="1620" class="st0" width="399" height="366"/>
	<path d="M853.89,1620.5v365h-398v-365H853.89 M854.89,1619.5h-400v367h400V1619.5L854.89,1619.5z"/>
</g>
<g>
	<rect x="472.39" y="1620" transform="matrix(0.7071 -0.7071 0.7071 0.7071 -1082.9532 991.5192)" width="366" height="366"/>
	<path d="M655.39,1544.91L913.49,1803l-258.09,258.09L397.3,1803L655.39,1544.91 M655.39,1543.49L395.88,1803l259.51,259.51
		L914.9,1803L655.39,1543.49L655.39,1543.49z"/>
</g>
<g>
	
		<rect x="515.43" y="1662.93" transform="matrix(0.7408 -0.6717 0.6717 0.7408 -1041.2433 907.6899)" class="st1" width="280.12" height="280.16"/>
	<path d="M665.12,1605.86l187.52,206.79l-206.77,187.5l-187.52-206.79L665.12,1605.86 M665.18,1604.45l-208.25,188.84l188.86,208.28
		l208.25-188.84L665.18,1604.45L665.18,1604.45z"/>
</g>
<g>
	<path d="M652.75,1919.36c-19.03,0-37.27-8.08-50.05-22.17l-47.56-52.44c-25.01-27.58-22.92-70.38,4.66-95.39l52.36-47.48
		c12.45-11.29,28.55-17.51,45.34-17.51c19.03,0,37.27,8.08,50.05,22.17l47.56,52.44c12.12,13.36,18.31,30.64,17.42,48.66
		c-0.88,18.02-8.72,34.61-22.09,46.73l-52.36,47.48C685.65,1913.14,669.54,1919.36,652.75,1919.36z"/>
	<path d="M657.52,1683.87v1h0c18.89,0,36.99,8.02,49.67,22l47.56,52.44c24.83,27.38,22.75,69.86-4.63,94.68l-52.36,47.48
		c-12.36,11.21-28.34,17.38-45.01,17.38c-18.89,0-37-8.02-49.68-22l-47.56-52.44c-24.83-27.38-22.75-69.86,4.63-94.68l52.36-47.48
		c12.36-11.2,28.34-17.38,45.01-17.38L657.52,1683.87 M657.52,1683.87c-16.3,0-32.65,5.82-45.68,17.64l-52.36,47.48
		c-27.83,25.24-29.94,68.26-4.7,96.1l47.56,52.44c13.43,14.81,31.89,22.33,50.42,22.33c16.3,0,32.65-5.82,45.68-17.64l52.36-47.48
		c27.83-25.24,29.94-68.26,4.7-96.1l-47.56-52.44C694.5,1691.4,676.05,1683.87,657.52,1683.87L657.52,1683.87z"/>
</g>
<g>
	<rect x="593.39" y="1738" class="st2" width="127" height="127"/>
	<path d="M719.89,1738.5v126h-126v-126H719.89 M720.89,1737.5h-128v128h128V1737.5L720.89,1737.5z"/>
</g>
<g>
	<rect x="1151.39" y="1626" class="st0" width="399" height="366"/>
	<path d="M1549.89,1626.5v365h-398v-365H1549.89 M1550.89,1625.5h-400v367h400V1625.5L1550.89,1625.5z"/>
</g>
<g>
	<rect x="1186.18" y="1626.36" transform="matrix(0.7071 -0.7071 0.7071 0.7071 -878.3849 1498.0996)" width="366" height="366"/>
	<path d="M1369.18,1551.26l258.09,258.09l-258.09,258.09l-258.09-258.09L1369.18,1551.26 M1369.18,1549.85l-259.51,259.51
		l259.51,259.51l259.51-259.51L1369.18,1549.85L1369.18,1549.85z"/>
</g>
<g>
	
		<rect x="1229.22" y="1662.29" transform="matrix(0.7408 -0.6717 0.6717 0.7408 -855.7864 1387.0011)" class="st1" width="280.12" height="280.16"/>
	<path d="M1378.9,1605.22l187.52,206.79l-206.77,187.5l-187.52-206.79L1378.9,1605.22 M1378.97,1603.8l-208.25,188.84l188.86,208.28
		l208.25-188.84L1378.97,1603.8L1378.97,1603.8z"/>
</g>
<g>
	<path d="M1372.01,1946.89c-20.96,0-41.06-8.9-55.13-24.42l-38.34-42.28c-27.55-30.39-25.25-77.52,5.14-105.08l42.2-38.27
		c13.71-12.44,31.45-19.28,49.95-19.28c20.96,0,41.06,8.9,55.13,24.42l38.34,42.28c27.55,30.39,25.25,77.52-5.14,105.08l-42.2,38.27
		C1408.25,1940.04,1390.51,1946.89,1372.01,1946.89z"/>
	<path d="M1375.83,1718.06c20.82,0,40.78,8.84,54.75,24.26l38.34,42.28c13.26,14.62,20.03,33.53,19.07,53.24
		c-0.96,19.71-9.55,37.87-24.17,51.13l-42.2,38.27c-13.62,12.35-31.24,19.15-49.61,19.15c-20.82,0-40.78-8.84-54.76-24.26
		l-38.34-42.28c-27.37-30.18-25.08-77,5.1-104.37l42.2-38.27C1339.83,1724.86,1357.45,1718.06,1375.83,1718.06L1375.83,1718.06
		 M1375.83,1717.06c-17.94,0-35.95,6.41-50.28,19.41l-42.2,38.27c-30.64,27.78-32.95,75.14-5.17,105.78l38.34,42.28
		c14.78,16.3,35.1,24.58,55.5,24.58c17.94,0,35.95-6.41,50.28-19.41l42.2-38.27c30.64-27.78,32.95-75.14,5.17-105.78l-38.34-42.28
		C1416.54,1725.34,1396.22,1717.06,1375.83,1717.06L1375.83,1717.06z"/>
</g>
<g>
	<rect x="1312.39" y="1767" class="st2" width="127" height="127"/>
	<path d="M1438.89,1767.5v126h-126v-126H1438.89 M1439.89,1766.5h-128v128h128V1766.5L1439.89,1766.5z"/>
</g>
<g>
	<rect x="804.18" y="1984.36" class="st0" width="399" height="366"/>
	<path d="M1202.68,1984.86v365h-398v-365H1202.68 M1203.68,1983.86h-400v367h400V1983.86L1203.68,1983.86z"/>
</g>
<g>
	<rect x="821.18" y="1984.36" transform="matrix(0.7071 -0.7071 0.7071 0.7071 -1238.4366 1344.8678)" width="366" height="366"/>
	<path d="M1004.18,1909.26l258.09,258.09l-258.09,258.09l-258.09-258.09L1004.18,1909.26 M1004.18,1907.85l-259.51,259.51
		l259.51,259.51l259.51-259.51L1004.18,1907.85L1004.18,1907.85z"/>
</g>
<g>
	
		<rect x="862.22" y="2029.28" transform="matrix(0.7408 -0.6717 0.6717 0.7408 -1197.4464 1235.6008)" class="st3" width="280.12" height="280.16"/>
	<path d="M1011.9,1972.22l187.52,206.79l-206.77,187.5l-187.52-206.79L1011.9,1972.22 M1011.97,1970.8l-208.25,188.84l188.86,208.28
		l208.25-188.84L1011.97,1970.8L1011.97,1970.8z"/>
</g>
<g>
	<path d="M1000.08,2275.56c-25.29,0-49.53-10.74-66.5-29.46l-17.72-19.54c-33.24-36.66-30.46-93.52,6.2-126.76l19.46-17.64
		c16.54-15,37.94-23.26,60.26-23.26c25.29,0,49.53,10.74,66.5,29.46l17.72,19.54c16.1,17.76,24.33,40.72,23.15,64.66
		c-1.17,23.94-11.59,45.99-29.35,62.1l-19.46,17.64C1043.79,2267.3,1022.39,2275.56,1000.08,2275.56z"/>
	<path d="M1001.77,2059.39c25.14,0,49.25,10.68,66.13,29.29l17.72,19.54c33.05,36.45,30.29,93-6.16,126.05l-19.46,17.64
		c-16.45,14.92-37.73,23.13-59.92,23.13c-25.15,0-49.25-10.68-66.13-29.29l-17.72-19.54c-33.05-36.45-30.29-93,6.16-126.05
		l19.46-17.64C958.29,2067.61,979.57,2059.39,1001.77,2059.39L1001.77,2059.39 M1001.76,2058.39c-21.62,0-43.31,7.73-60.59,23.39
		l-19.46,17.64c-36.92,33.48-39.71,90.55-6.23,127.47l17.72,19.54c17.81,19.64,42.3,29.62,66.88,29.62
		c21.62,0,43.31-7.73,60.59-23.39l19.46-17.64c36.92-33.48,39.71-90.55,6.23-127.47l-17.72-19.54
		C1050.82,2068.37,1026.34,2058.39,1001.76,2058.39L1001.76,2058.39z"/>
</g>
<g>
	<rect x="937.39" y="2101" class="st2" width="127" height="127"/>
	<path d="M1063.89,2101.5v126h-126v-126H1063.89 M1064.89,2100.5h-128v128h128V2100.5L1064.89,2100.5z"/>
</g>
<g>
	<rect x="819.18" y="1271.36" class="st0" width="399" height="366"/>
	<path d="M1217.68,1271.86v365h-398v-365H1217.68 M1218.68,1270.86h-400v367h400V1270.86L1218.68,1270.86z"/>
</g>
<g>
	<rect x="836.18" y="1271.36" transform="matrix(0.7071 -0.7071 0.7071 0.7071 -729.8749 1146.6378)" width="366" height="366"/>
	<path d="M1019.18,1196.26l258.09,258.09l-258.09,258.09l-258.09-258.09L1019.18,1196.26 M1019.18,1194.85l-259.51,259.51
		l259.51,259.51l259.51-259.51L1019.18,1194.85L1019.18,1194.85z"/>
</g>
<g>
	
		<rect x="879.22" y="1314.28" transform="matrix(0.7408 -0.6717 0.6717 0.7408 -712.7452 1061.6846)" class="st1" width="280.12" height="280.16"/>
	<path d="M1028.9,1257.22l187.52,206.79l-206.77,187.5l-187.52-206.79L1028.9,1257.22 M1028.97,1255.8l-208.25,188.84l188.86,208.28
		l208.25-188.84L1028.97,1255.8L1028.97,1255.8z"/>
</g>
<g>
	<path d="M1016.98,1556.07c-20.84,0-40.82-8.85-54.81-24.28l-38.92-42.92c-27.39-30.21-25.1-77.07,5.11-104.47l42.84-38.85
		c13.63-12.36,31.27-19.17,49.66-19.17c20.84,0,40.82,8.85,54.81,24.28l38.92,42.92c27.39,30.21,25.1,77.07-5.11,104.47
		l-42.84,38.85C1053.01,1549.26,1035.37,1556.07,1016.98,1556.07z"/>
	<path d="M1020.86,1326.88c20.7,0,40.54,8.79,54.43,24.11l38.92,42.92c27.21,30.01,24.93,76.55-5.07,103.76l-42.84,38.85
		c-13.54,12.28-31.06,19.04-49.32,19.04c-20.7,0-40.54-8.79-54.44-24.11l-38.92-42.92c-27.21-30.01-24.93-76.55,5.07-103.76
		l42.84-38.85C985.07,1333.65,1002.59,1326.88,1020.86,1326.88L1020.86,1326.88 M1020.86,1325.88c-17.84,0-35.74,6.37-49.99,19.3
		l-42.84,38.85c-30.46,27.62-32.76,74.71-5.14,105.17l38.92,42.92c14.7,16.21,34.9,24.44,55.18,24.44c17.84,0,35.74-6.37,49.99-19.3
		l42.84-38.85c30.46-27.62,32.76-74.71,5.14-105.17l-38.92-42.92C1061.34,1334.12,1041.14,1325.88,1020.86,1325.88L1020.86,1325.88z
		"/>
</g>
<g>
	<rect x="952.39" y="1379" class="st2" width="127" height="127"/>
	<path d="M1078.89,1379.5v126h-126v-126H1078.89 M1079.89,1378.5h-128v128h128V1378.5L1079.89,1378.5z"/>
</g>
<g>
	<rect x="518.95" y="431.75" class="st0" width="399" height="366"/>
	<path d="M917.45,432.25v365h-398v-365H917.45 M918.45,431.25h-400v367h400V431.25L918.45,431.25z"/>
</g>
<g>
	<rect x="535.95" y="431.75" transform="matrix(0.7071 -0.7071 0.7071 0.7071 -224.1193 688.4289)" width="366" height="366"/>
	<path d="M718.95,356.66l258.09,258.09L718.95,872.84L460.85,614.75L718.95,356.66 M718.95,355.24L459.44,614.75l259.51,259.51
		l259.51-259.51L718.95,355.24L718.95,355.24z"/>
</g>
<g>
	
		<rect x="578.98" y="474.68" transform="matrix(0.7408 -0.6717 0.6717 0.7408 -226.5703 642.3683)" class="st1" width="280.12" height="280.16"/>
	<path d="M728.67,417.61L916.19,624.4L709.42,811.9L521.9,605.11L728.67,417.61 M728.74,416.2L520.49,605.04l188.86,208.28
		L917.6,624.47L728.74,416.2L728.74,416.2z"/>
</g>
<g>
	<path d="M716.31,731.11c-19.03,0-37.27-8.08-50.05-22.17L618.7,656.5c-25.01-27.58-22.92-70.38,4.66-95.39l52.36-47.48
		c12.45-11.29,28.55-17.51,45.34-17.51c19.03,0,37.27,8.08,50.05,22.17l47.56,52.44c25.01,27.58,22.92,70.38-4.66,95.39
		l-52.36,47.48C749.2,724.9,733.1,731.11,716.31,731.11z"/>
	<path d="M721.07,495.62v1h0c18.89,0,36.99,8.02,49.67,22l47.56,52.44c24.83,27.38,22.75,69.86-4.63,94.68l-52.36,47.48
		c-12.36,11.21-28.34,17.38-45.01,17.38c-18.89,0-37-8.02-49.68-22l-47.56-52.44c-24.83-27.38-22.75-69.86,4.63-94.68L676.06,514
		c12.36-11.2,28.34-17.38,45.01-17.38L721.07,495.62 M721.07,495.62c-16.3,0-32.65,5.82-45.68,17.64l-52.36,47.48
		c-27.83,25.24-29.94,68.26-4.7,96.1l47.56,52.44c13.43,14.81,31.89,22.33,50.42,22.33c16.3,0,32.65-5.82,45.68-17.64l52.36-47.48
		c27.83-25.24,29.94-68.26,4.7-96.1l-47.56-52.44C758.06,503.15,739.6,495.62,721.07,495.62L721.07,495.62z"/>
</g>
<g>
	<rect x="656.95" y="549.75" class="st2" width="127" height="127"/>
	<path d="M783.45,550.25v126h-126v-126H783.45 M784.45,549.25h-128v128h128V549.25L784.45,549.25z"/>
</g>
<g>
	<rect x="1214.95" y="437.75" class="st0" width="399" height="366"/>
	<path d="M1613.45,438.25v365h-398v-365H1613.45 M1614.45,437.25h-400v367h400V437.25L1614.45,437.25z"/>
</g>
<g>
	<rect x="1249.73" y="438.11" transform="matrix(0.7071 -0.7071 0.7071 0.7071 -19.5526 1195.0099)" width="366" height="366"/>
	<path d="M1432.73,363.01l258.09,258.09L1432.73,879.2l-258.09-258.09L1432.73,363.01 M1432.73,361.6l-259.51,259.51l259.51,259.51
		l259.51-259.51L1432.73,361.6L1432.73,361.6z"/>
</g>
<g>
	
		<rect x="1292.77" y="474.04" transform="matrix(0.7408 -0.6717 0.6717 0.7408 -41.1145 1121.6804)" class="st1" width="280.12" height="280.16"/>
	<path d="M1442.45,416.97l187.52,206.79l-206.77,187.5l-187.52-206.79L1442.45,416.97 M1442.52,415.55L1234.27,604.4l188.86,208.28
		l208.25-188.84L1442.52,415.55L1442.52,415.55z"/>
</g>
<g>
	<path d="M1435.57,758.64c-20.96,0-41.06-8.9-55.13-24.42l-38.34-42.28c-13.35-14.72-20.16-33.76-19.19-53.6
		c0.97-19.85,9.61-38.13,24.33-51.47l42.2-38.27c13.71-12.44,31.45-19.28,49.95-19.28c20.96,0,41.06,8.9,55.13,24.42l38.34,42.28
		c13.35,14.72,20.16,33.76,19.19,53.6c-0.97,19.85-9.61,38.13-24.33,51.47l-42.2,38.27C1471.8,751.79,1454.06,758.64,1435.57,758.64
		z"/>
	<path d="M1439.38,529.81c20.82,0,40.78,8.84,54.75,24.26l38.34,42.28c13.26,14.62,20.03,33.53,19.07,53.24
		c-0.96,19.71-9.55,37.87-24.17,51.13l-42.2,38.27c-13.62,12.35-31.24,19.15-49.61,19.15c-20.82,0-40.78-8.84-54.76-24.26
		l-38.34-42.28c-27.37-30.18-25.08-77,5.1-104.37l42.2-38.27C1403.39,536.61,1421.01,529.81,1439.38,529.81L1439.38,529.81
		 M1439.38,528.81c-17.94,0-35.95,6.41-50.28,19.41l-42.2,38.27c-30.64,27.78-32.95,75.14-5.17,105.78l38.34,42.28
		c14.78,16.3,35.1,24.58,55.5,24.58c17.94,0,35.95-6.41,50.28-19.41l42.2-38.27c30.64-27.78,32.95-75.14,5.17-105.78l-38.34-42.28
		C1480.1,537.09,1459.78,528.81,1439.38,528.81L1439.38,528.81z"/>
</g>
<g>
	<rect x="1375.95" y="578.75" class="st2" width="127" height="127"/>
	<path d="M1502.45,579.25v126h-126v-126H1502.45 M1503.45,578.25h-128v128h128V578.25L1503.45,578.25z"/>
</g>
<g>
	<rect x="867.73" y="796.11" class="st0" width="399" height="366"/>
	<path d="M1266.23,796.61v365h-398v-365H1266.23 M1267.23,795.61h-400v367h400V795.61L1267.23,795.61z"/>
</g>
<g>
	<rect x="884.73" y="796.11" transform="matrix(0.7071 -0.7071 0.7071 0.7071 -379.6017 1041.7732)" width="366" height="366"/>
	<path d="M1067.73,721.01l258.09,258.09l-258.09,258.09L809.64,979.11L1067.73,721.01 M1067.73,719.6L808.22,979.11l259.51,259.51
		l259.51-259.51L1067.73,719.6L1067.73,719.6z"/>
</g>
<g>
	
		<rect x="925.77" y="841.04" transform="matrix(0.7408 -0.6717 0.6717 0.7408 -382.7758 970.283)" class="st3" width="280.12" height="280.16"/>
	<path d="M1075.45,783.97l187.52,206.79l-206.77,187.5L868.69,971.46L1075.45,783.97 M1075.52,782.55L867.27,971.4l188.86,208.28
		l208.25-188.84L1075.52,782.55L1075.52,782.55z"/>
</g>
<g>
	<path d="M1063.63,1087.31c-25.29,0-49.53-10.74-66.5-29.46l-17.72-19.54c-33.24-36.66-30.46-93.52,6.2-126.76l19.46-17.64
		c16.54-15,37.94-23.26,60.26-23.26c25.29,0,49.53,10.74,66.5,29.46l17.72,19.54c33.24,36.66,30.46,93.52-6.2,126.76l-19.46,17.64
		C1107.34,1079.05,1085.95,1087.31,1063.63,1087.31z"/>
	<path d="M1065.32,871.14c25.14,0,49.25,10.68,66.13,29.29l17.72,19.54c33.05,36.45,30.29,93-6.16,126.05l-19.46,17.64
		c-16.45,14.92-37.73,23.13-59.92,23.13c-25.15,0-49.25-10.68-66.13-29.29l-17.72-19.54c-16.01-17.66-24.19-40.49-23.03-64.3
		c1.16-23.81,11.53-45.74,29.19-61.75l19.46-17.64C1021.84,879.36,1043.12,871.14,1065.32,871.14L1065.32,871.14 M1065.31,870.14
		c-21.62,0-43.31,7.73-60.59,23.39l-19.46,17.64c-36.92,33.48-39.71,90.55-6.23,127.47l17.72,19.54
		c17.81,19.64,42.3,29.62,66.88,29.62c21.62,0,43.31-7.73,60.59-23.39l19.46-17.64c36.92-33.48,39.71-90.55,6.23-127.47
		l-17.72-19.54C1114.38,880.12,1089.89,870.14,1065.31,870.14L1065.31,870.14z"/>
</g>
<g>
	<rect x="1000.95" y="912.75" class="st2" width="127" height="127"/>
	<path d="M1127.45,913.25v126h-126v-126H1127.45 M1128.45,912.25h-128v128h128V912.25L1128.45,912.25z"/>
</g>
<g>
	<rect x="882.73" y="83.11" class="st0" width="399" height="366"/>
	<path d="M1281.23,83.61v365h-398v-365H1281.23 M1282.23,82.61h-400v367h400V82.61L1282.23,82.61z"/>
</g>
<g>
	<rect x="899.73" y="83.11" transform="matrix(0.7071 -0.7071 0.7071 0.7071 128.9583 843.5474)" width="366" height="366"/>
	<path d="M1082.73,8.01l258.09,258.09L1082.73,524.2L824.64,266.11L1082.73,8.01 M1082.73,6.6L823.22,266.11l259.51,259.51
		l259.51-259.51L1082.73,6.6L1082.73,6.6z"/>
</g>
<g>
	
		<rect x="942.77" y="126.04" transform="matrix(0.7408 -0.6717 0.6717 0.7408 101.9265 796.3638)" class="st1" width="280.12" height="280.16"/>
	<path d="M1092.45,68.97l187.52,206.79l-206.77,187.5L885.69,256.46L1092.45,68.97 M1092.52,67.55L884.27,256.4l188.86,208.28
		l208.25-188.84L1092.52,67.55L1092.52,67.55z"/>
</g>
<g>
	<path d="M1080.54,367.82c-20.84,0-40.82-8.85-54.81-24.28l-38.92-42.92c-13.27-14.63-20.05-33.56-19.08-53.29
		s9.55-37.91,24.19-51.18l42.84-38.85c13.63-12.36,31.27-19.17,49.66-19.17c20.84,0,40.82,8.85,54.81,24.28l38.92,42.92
		c27.39,30.21,25.1,77.07-5.11,104.47l-42.84,38.85C1116.56,361.01,1098.93,367.82,1080.54,367.82z"/>
	<path d="M1084.41,138.63c20.7,0,40.54,8.79,54.43,24.11l38.92,42.92c27.21,30.01,24.93,76.55-5.07,103.76l-42.84,38.85
		c-13.54,12.28-31.06,19.04-49.32,19.04c-20.7,0-40.54-8.79-54.44-24.11l-38.92-42.92c-27.21-30.01-24.93-76.55,5.07-103.76
		l42.84-38.85C1048.63,145.4,1066.14,138.63,1084.41,138.63L1084.41,138.63 M1084.41,137.63c-17.84,0-35.74,6.37-49.99,19.3
		l-42.84,38.85c-30.46,27.62-32.76,74.71-5.14,105.17l38.92,42.92c14.7,16.21,34.9,24.44,55.18,24.44c17.84,0,35.74-6.37,49.99-19.3
		l42.84-38.85c30.46-27.62,32.76-74.71,5.14-105.17l-38.92-42.92C1124.89,145.87,1104.69,137.63,1084.41,137.63L1084.41,137.63z"/>
</g>
<g>
	<rect x="1015.95" y="190.75" class="st2" width="127" height="127"/>
	<path d="M1142.45,191.25v126h-126v-126H1142.45 M1143.45,190.25h-128v128h128V190.25L1143.45,190.25z"/>
</g>
<g>
	<rect x="491.84" y="1622.25" class="st0" width="399" height="366"/>
	<path d="M890.34,1622.75v365h-398v-365H890.34 M891.34,1621.75h-400v367h400V1621.75L891.34,1621.75z"/>
</g>
<g>
	<rect x="508.84" y="1622.25" transform="matrix(0.7071 -0.7071 0.7071 0.7071 -1073.8688 1017.9481)" width="366" height="366"/>
	<path d="M691.84,1547.16l258.09,258.09l-258.09,258.09l-258.09-258.09L691.84,1547.16 M691.84,1545.74l-259.51,259.51
		l259.51,259.51l259.51-259.51L691.84,1545.74L691.84,1545.74z"/>
</g>
<g>
	
		<rect x="551.88" y="1665.18" transform="matrix(0.7408 -0.6717 0.6717 0.7408 -1033.3048 932.7513)" class="st1" width="280.12" height="280.16"/>
	<path d="M701.56,1608.11l187.52,206.79l-206.77,187.5l-187.52-206.79L701.56,1608.11 M701.63,1606.7l-208.25,188.84l188.86,208.28
		l208.25-188.84L701.63,1606.7L701.63,1606.7z"/>
</g>
<g>
	<path d="M689.2,1921.61c-19.03,0-37.27-8.08-50.05-22.17L591.6,1847c-25.01-27.58-22.92-70.38,4.66-95.39l52.36-47.48
		c12.45-11.29,28.55-17.51,45.34-17.51c19.03,0,37.27,8.08,50.05,22.17l47.56,52.44c12.12,13.36,18.31,30.64,17.42,48.66
		c-0.88,18.02-8.72,34.61-22.09,46.73l-52.36,47.48C722.09,1915.39,705.99,1921.61,689.2,1921.61z"/>
	<path d="M693.97,1686.12v1h0c18.89,0,36.99,8.02,49.67,22l47.56,52.44c12.03,13.26,18.17,30.42,17.3,48.3
		c-0.87,17.88-8.66,34.36-21.92,46.38l-52.36,47.48c-12.36,11.21-28.34,17.38-45.01,17.38c-18.89,0-37-8.02-49.68-22l-47.56-52.44
		c-24.83-27.38-22.75-69.86,4.63-94.68l52.36-47.48c12.36-11.2,28.34-17.38,45.01-17.38L693.97,1686.12 M693.96,1686.12
		c-16.3,0-32.65,5.82-45.68,17.64l-52.36,47.48c-27.83,25.24-29.94,68.26-4.7,96.1l47.56,52.44c13.43,14.81,31.89,22.33,50.42,22.33
		c16.3,0,32.65-5.82,45.68-17.64l52.36-47.48c27.83-25.24,29.94-68.26,4.7-96.1l-47.56-52.44
		C730.95,1693.65,712.49,1686.12,693.96,1686.12L693.96,1686.12z"/>
</g>
<g>
	<rect x="629.84" y="1740.25" class="st2" width="127" height="127"/>
	<path d="M756.34,1740.75v126h-126v-126H756.34 M757.34,1739.75h-128v128h128V1739.75L757.34,1739.75z"/>
</g>
<g>
	<rect x="1187.84" y="1628.25" class="st0" width="399" height="366"/>
	<path d="M1586.34,1628.75v365h-398v-365H1586.34 M1587.34,1627.75h-400v367h400V1627.75L1587.34,1627.75z"/>
</g>
<g>
	<rect x="1222.62" y="1628.61" transform="matrix(0.7071 -0.7071 0.7071 0.7071 -869.3022 1524.5387)" width="366" height="366"/>
	<path d="M1405.62,1553.51l258.09,258.09l-258.09,258.09l-258.09-258.09L1405.62,1553.51 M1405.62,1552.1l-259.51,259.51
		l259.51,259.51l259.51-259.51L1405.62,1552.1L1405.62,1552.1z"/>
</g>
<g>
	
		<rect x="1265.66" y="1664.54" transform="matrix(0.7408 -0.6717 0.6717 0.7408 -847.8489 1412.0587)" class="st1" width="280.12" height="280.16"/>
	<path d="M1415.35,1607.47l187.52,206.79l-206.77,187.5l-187.52-206.79L1415.35,1607.47 M1415.42,1606.05l-208.25,188.84
		l188.86,208.28l208.25-188.84L1415.42,1606.05L1415.42,1606.05z"/>
</g>
<g>
	<path d="M1408.46,1949.14c-20.96,0-41.06-8.9-55.13-24.42l-38.34-42.28c-27.55-30.39-25.25-77.52,5.14-105.08l42.2-38.27
		c13.71-12.43,31.45-19.28,49.95-19.28c20.96,0,41.06,8.9,55.13,24.42l38.34,42.28c13.35,14.72,20.16,33.76,19.19,53.6
		c-0.97,19.85-9.61,38.13-24.33,51.47l-42.2,38.27C1444.7,1942.29,1426.96,1949.14,1408.46,1949.14z"/>
	<path d="M1412.28,1720.31c20.82,0,40.78,8.84,54.75,24.26l38.34,42.28c13.26,14.62,20.03,33.53,19.07,53.24
		c-0.96,19.71-9.55,37.87-24.17,51.13l-42.2,38.27c-13.62,12.35-31.24,19.15-49.61,19.15c-20.82,0-40.78-8.84-54.76-24.26
		l-38.34-42.28c-13.26-14.62-20.03-33.53-19.07-53.24c0.96-19.71,9.55-37.87,24.17-51.13l42.2-38.27
		C1376.28,1727.11,1393.9,1720.31,1412.28,1720.31L1412.28,1720.31 M1412.27,1719.31c-17.94,0-35.95,6.41-50.28,19.41l-42.2,38.27
		c-30.64,27.78-32.95,75.14-5.17,105.78l38.34,42.28c14.78,16.3,35.1,24.58,55.5,24.58c17.94,0,35.95-6.41,50.28-19.41l42.2-38.27
		c30.64-27.78,32.95-75.14,5.17-105.78l-38.34-42.28C1452.99,1727.59,1432.67,1719.31,1412.27,1719.31L1412.27,1719.31z"/>
</g>
<g>
	<rect x="1348.84" y="1769.25" class="st2" width="127" height="127"/>
	<path d="M1475.34,1769.75v126h-126v-126H1475.34 M1476.34,1768.75h-128v128h128V1768.75L1476.34,1768.75z"/>
</g>
<g>
	<rect x="840.62" y="1986.61" class="st0" width="399" height="366"/>
	<path d="M1239.12,1987.11v365h-398v-365H1239.12 M1240.12,1986.11h-400v367h400V1986.11L1240.12,1986.11z"/>
</g>
<g>
	<rect x="857.62" y="1986.61" transform="matrix(0.7071 -0.7071 0.7071 0.7071 -1229.3528 1371.2983)" width="366" height="366"/>
	<path d="M1040.62,1911.51l258.09,258.09l-258.09,258.09l-258.09-258.09L1040.62,1911.51 M1040.62,1910.1l-259.51,259.51
		l259.51,259.51l259.51-259.51L1040.62,1910.1L1040.62,1910.1z"/>
</g>
<g>
	
		<rect x="898.66" y="2031.53" transform="matrix(0.7408 -0.6717 0.6717 0.7408 -1189.5105 1260.6666)" class="st3" width="280.12" height="280.16"/>
	<path d="M1048.35,1974.47l187.52,206.79l-206.77,187.5l-187.52-206.79L1048.35,1974.47 M1048.42,1973.05L840.17,2161.9
		l188.86,208.28l208.25-188.84L1048.42,1973.05L1048.42,1973.05z"/>
</g>
<g>
	<path d="M1036.52,2277.81c-25.29,0-49.53-10.74-66.5-29.46l-17.72-19.54c-16.1-17.76-24.33-40.72-23.16-64.66
		c1.17-23.94,11.59-46,29.35-62.1l19.46-17.64c16.54-15,37.94-23.26,60.25-23.26c25.29,0,49.53,10.74,66.5,29.46l17.72,19.54
		c16.1,17.76,24.33,40.72,23.15,64.66c-1.17,23.94-11.59,45.99-29.35,62.1l-19.46,17.64
		C1080.24,2269.55,1058.84,2277.81,1036.52,2277.81z"/>
	<path d="M1038.21,2061.64c25.14,0,49.25,10.68,66.13,29.29l17.72,19.54c16.01,17.66,24.19,40.49,23.03,64.3
		s-11.53,45.74-29.19,61.75l-19.46,17.64c-16.45,14.92-37.73,23.13-59.92,23.13c-25.15,0-49.25-10.68-66.13-29.29l-17.72-19.54
		c-33.05-36.45-30.29-93,6.16-126.05l19.46-17.64C994.74,2069.86,1016.02,2061.64,1038.21,2061.64L1038.21,2061.64 M1038.21,2060.64
		c-21.62,0-43.31,7.73-60.59,23.39l-19.46,17.64c-36.92,33.48-39.71,90.55-6.23,127.47l17.72,19.54
		c17.81,19.64,42.3,29.62,66.88,29.62c21.62,0,43.31-7.73,60.59-23.39l19.46-17.64c36.92-33.48,39.71-90.55,6.23-127.47
		l-17.72-19.54C1087.27,2070.62,1062.79,2060.64,1038.21,2060.64L1038.21,2060.64z"/>
</g>
<g>
	<rect x="973.84" y="2103.25" class="st2" width="127" height="127"/>
	<path d="M1100.34,2103.75v126h-126v-126H1100.34 M1101.34,2102.75h-128v128h128V2102.75L1101.34,2102.75z"/>
</g>
<g>
	<rect x="855.62" y="1273.61" class="st0" width="399" height="366"/>
	<path d="M1254.12,1274.11v365h-398v-365H1254.12 M1255.12,1273.11h-400v367h400V1273.11L1255.12,1273.11z"/>
</g>
<g>
	<rect x="872.62" y="1273.61" transform="matrix(0.7071 -0.7071 0.7071 0.7071 -720.7915 1173.0699)" width="366" height="366"/>
	<path d="M1055.62,1198.51l258.09,258.09l-258.09,258.09l-258.09-258.09L1055.62,1198.51 M1055.62,1197.1l-259.51,259.51
		l259.51,259.51l259.51-259.51L1055.62,1197.1L1055.62,1197.1z"/>
</g>
<g>
	
		<rect x="915.66" y="1316.53" transform="matrix(0.7408 -0.6717 0.6717 0.7408 -704.8079 1086.744)" class="st1" width="280.12" height="280.16"/>
	<path d="M1065.35,1259.47l187.52,206.79l-206.77,187.5l-187.52-206.79L1065.35,1259.47 M1065.42,1258.05L857.17,1446.9
		l188.86,208.28l208.25-188.84L1065.42,1258.05L1065.42,1258.05z"/>
</g>
<g>
	<path d="M1053.43,1558.32c-20.84,0-40.82-8.85-54.81-24.28l-38.92-42.92c-27.39-30.21-25.1-77.07,5.11-104.47l42.84-38.85
		c13.63-12.36,31.27-19.17,49.66-19.17c20.84,0,40.82,8.85,54.81,24.28l38.92,42.92c13.27,14.63,20.05,33.56,19.08,53.29
		c-0.96,19.73-9.55,37.91-24.19,51.18l-42.84,38.85C1089.46,1551.51,1071.82,1558.32,1053.43,1558.32z"/>
	<path d="M1057.31,1329.13c20.7,0,40.54,8.79,54.43,24.11l38.92,42.92c27.21,30.01,24.93,76.55-5.07,103.76l-42.84,38.85
		c-13.54,12.28-31.06,19.04-49.32,19.04c-20.7,0-40.54-8.79-54.44-24.11l-38.92-42.92c-27.21-30.01-24.93-76.55,5.07-103.76
		l42.84-38.85C1021.52,1335.9,1039.04,1329.13,1057.31,1329.13L1057.31,1329.13 M1057.3,1328.13c-17.84,0-35.74,6.37-49.99,19.3
		l-42.84,38.85c-30.46,27.62-32.76,74.71-5.14,105.17l38.92,42.92c14.7,16.21,34.9,24.44,55.18,24.44c17.84,0,35.74-6.37,49.99-19.3
		l42.84-38.85c30.46-27.62,32.76-74.71,5.14-105.17l-38.92-42.92C1097.78,1336.37,1077.58,1328.13,1057.3,1328.13L1057.3,1328.13z"
		/>
</g>
<g>
	<rect x="988.84" y="1381.25" class="st2" width="127" height="127"/>
	<path d="M1115.34,1381.75v126h-126v-126H1115.34 M1116.34,1380.75h-128v128h128V1380.75L1116.34,1380.75z"/>
</g>
<g>
	<rect x="1307.17" y="1025.88" class="st0" width="399" height="366"/>
	<path d="M1705.67,1026.38v365h-398v-365H1705.67 M1706.67,1025.38h-400v367h400V1025.38L1706.67,1025.38z"/>
</g>
<g>
	<rect x="1324.17" y="1025.87" transform="matrix(0.7071 -0.7071 0.7071 0.7071 -413.3637 1419.8029)" width="366" height="366"/>
	<path d="M1507.17,950.78l258.09,258.09l-258.09,258.09l-258.09-258.09L1507.17,950.78 M1507.17,949.37l-259.51,259.51
		l259.51,259.51l259.51-259.51L1507.17,949.37L1507.17,949.37z"/>
</g>
<g>
	
		<rect x="1367.21" y="1068.8" transform="matrix(0.7408 -0.6717 0.6717 0.7408 -421.3496 1325.8585)" class="st1" width="280.12" height="280.16"/>
	<path d="M1516.89,1011.74l187.52,206.79l-206.77,187.5l-187.52-206.79L1516.89,1011.74 M1516.96,1010.32l-208.25,188.84
		l188.86,208.28l208.25-188.84L1516.96,1010.32L1516.96,1010.32z"/>
</g>
<g>
	<path d="M1504.53,1325.24c-19.03,0-37.27-8.08-50.05-22.17l-47.56-52.44c-25.01-27.58-22.92-70.38,4.66-95.39l52.36-47.48
		c12.45-11.29,28.55-17.51,45.34-17.51c19.03,0,37.27,8.08,50.05,22.17l47.56,52.44c12.12,13.36,18.31,30.64,17.43,48.66
		c-0.88,18.02-8.72,34.61-22.09,46.73l-52.36,47.48C1537.42,1319.02,1521.32,1325.24,1504.53,1325.24z"/>
	<path d="M1509.3,1089.75v1h0c18.89,0,36.99,8.02,49.67,22l47.56,52.44c12.03,13.26,18.17,30.42,17.3,48.3
		c-0.87,17.88-8.66,34.36-21.92,46.38l-52.36,47.48c-12.36,11.21-28.34,17.38-45.01,17.38c-18.89,0-37-8.02-49.68-22l-47.56-52.44
		c-24.83-27.38-22.75-69.86,4.63-94.68l52.36-47.48c12.36-11.2,28.34-17.38,45.01-17.38L1509.3,1089.75 M1509.29,1089.75
		c-16.3,0-32.65,5.82-45.68,17.64l-52.36,47.48c-27.83,25.24-29.94,68.26-4.7,96.1l47.56,52.44c13.43,14.81,31.89,22.33,50.42,22.33
		c16.3,0,32.65-5.82,45.68-17.64l52.36-47.48c27.83-25.24,29.94-68.26,4.7-96.1l-47.56-52.44
		C1546.28,1097.27,1527.82,1089.75,1509.29,1089.75L1509.29,1089.75z"/>
</g>
<g>
	<rect x="1445.17" y="1143.88" class="st2" width="127" height="127"/>
	<path d="M1571.67,1144.38v126h-126v-126H1571.67 M1572.67,1143.38h-128v128h128V1143.38L1572.67,1143.38z"/>
</g>
<g>
	<rect x="2003.17" y="1031.88" class="st0" width="399" height="366"/>
	<path d="M2401.67,1032.38v365h-398v-365H2401.67 M2402.67,1031.38h-400v367h400V1031.38L2402.67,1031.38z"/>
</g>
<g>
	<rect x="2037.96" y="1032.23" transform="matrix(0.7071 -0.7071 0.7071 0.7071 -208.7961 1926.3857)" width="366" height="366"/>
	<path d="M2220.96,957.14l258.09,258.09l-258.09,258.09l-258.09-258.09L2220.96,957.14 M2220.96,955.72l-259.51,259.51
		l259.51,259.51l259.51-259.51L2220.96,955.72L2220.96,955.72z"/>
</g>
<g>
	
		<rect x="2080.99" y="1068.16" transform="matrix(0.7408 -0.6717 0.6717 0.7408 -235.894 1805.1696)" class="st1" width="280.12" height="280.16"/>
	<path d="M2230.68,1011.09l187.52,206.79l-206.77,187.5l-187.52-206.79L2230.68,1011.09 M2230.75,1009.68l-208.25,188.84
		l188.86,208.28l208.25-188.84L2230.75,1009.68L2230.75,1009.68z"/>
</g>
<g>
	<path d="M2223.79,1352.76c-20.96,0-41.06-8.9-55.13-24.42l-38.34-42.28c-27.55-30.39-25.25-77.52,5.14-105.08l42.2-38.27
		c13.71-12.44,31.45-19.28,49.95-19.28c20.96,0,41.06,8.9,55.13,24.42l38.34,42.28c13.35,14.72,20.16,33.76,19.19,53.6
		c-0.97,19.85-9.61,38.13-24.33,51.48l-42.2,38.27C2260.03,1345.92,2242.29,1352.76,2223.79,1352.76z"/>
	<path d="M2227.61,1123.94c20.82,0,40.78,8.84,54.75,24.26l38.34,42.28c13.26,14.62,20.03,33.53,19.07,53.24
		c-0.96,19.71-9.55,37.87-24.17,51.13l-42.2,38.27c-13.62,12.35-31.24,19.15-49.61,19.15c-20.82,0-40.78-8.84-54.76-24.26
		l-38.34-42.28c-13.26-14.62-20.03-33.53-19.07-53.24c0.96-19.71,9.55-37.87,24.17-51.13l42.2-38.27
		C2191.61,1130.74,2209.23,1123.94,2227.61,1123.94L2227.61,1123.94 M2227.6,1122.94c-17.94,0-35.95,6.41-50.28,19.41l-42.2,38.27
		c-30.64,27.78-32.95,75.14-5.17,105.78l38.34,42.28c14.78,16.3,35.1,24.58,55.5,24.58c17.94,0,35.95-6.41,50.28-19.41l42.2-38.27
		c30.64-27.78,32.95-75.14,5.17-105.78l-38.34-42.28C2268.32,1131.22,2248,1122.93,2227.6,1122.94L2227.6,1122.94z"/>
</g>
<g>
	<rect x="2164.17" y="1172.88" class="st2" width="127" height="127"/>
	<path d="M2290.67,1173.38v126h-126v-126H2290.67 M2291.67,1172.38h-128v128h128V1172.38L2291.67,1172.38z"/>
</g>
<g>
	<rect x="1655.96" y="1390.23" class="st0" width="399" height="366"/>
	<path d="M2054.46,1390.73v365h-398v-365H2054.46 M2055.46,1389.73h-400v367h400V1389.73L2055.46,1389.73z"/>
</g>
<g>
	<rect x="1672.96" y="1390.23" transform="matrix(0.7071 -0.7071 0.7071 0.7071 -568.8461 1773.1501)" width="366" height="366"/>
	<path d="M1855.96,1315.14l258.09,258.09l-258.09,258.09l-258.09-258.09L1855.96,1315.14 M1855.96,1313.72l-259.51,259.51
		l259.51,259.51l259.51-259.51L1855.96,1313.72L1855.96,1313.72z"/>
</g>
<g>
	
		<rect x="1713.99" y="1435.16" transform="matrix(0.7408 -0.6717 0.6717 0.7408 -577.5555 1653.7688)" class="st3" width="280.12" height="280.16"/>
	<path d="M1863.68,1378.09l187.52,206.79l-206.77,187.5l-187.52-206.79L1863.68,1378.09 M1863.75,1376.68l-208.25,188.84
		l188.86,208.28l208.25-188.84L1863.75,1376.68L1863.75,1376.68z"/>
</g>
<g>
	<path d="M1851.85,1681.43c-25.29,0-49.53-10.74-66.5-29.46l-17.72-19.54c-33.24-36.66-30.46-93.52,6.2-126.76l19.46-17.64
		c16.54-15,37.94-23.26,60.26-23.26c25.29,0,49.53,10.74,66.5,29.46l17.72,19.54c16.1,17.76,24.33,40.72,23.16,64.66
		c-1.17,23.94-11.59,45.99-29.35,62.1l-19.46,17.64C1895.57,1673.17,1874.17,1681.43,1851.85,1681.43z"/>
	<path d="M1853.54,1465.27c25.14,0,49.25,10.68,66.13,29.29l17.72,19.54c33.05,36.45,30.29,93-6.16,126.05l-19.46,17.64
		c-16.45,14.92-37.73,23.13-59.92,23.13c-25.15,0-49.25-10.68-66.13-29.29L1768,1632.1c-16.01-17.66-24.19-40.49-23.03-64.3
		c1.16-23.81,11.53-45.74,29.19-61.75l19.46-17.64C1810.07,1473.48,1831.35,1465.27,1853.54,1465.27L1853.54,1465.27
		 M1853.54,1464.27c-21.62,0-43.31,7.73-60.59,23.39l-19.46,17.64c-36.92,33.48-39.71,90.55-6.23,127.47l17.72,19.54
		c17.81,19.64,42.3,29.62,66.88,29.62c21.62,0,43.31-7.73,60.59-23.39l19.46-17.64c36.92-33.48,39.71-90.55,6.23-127.47
		l-17.72-19.54C1902.6,1474.25,1878.12,1464.27,1853.54,1464.27L1853.54,1464.27z"/>
</g>
<g>
	<rect x="1789.17" y="1506.88" class="st2" width="127" height="127"/>
	<path d="M1915.67,1507.38v126h-126v-126H1915.67 M1916.67,1506.38h-128v128h128V1506.38L1916.67,1506.38z"/>
</g>
<g>
	<rect x="1670.96" y="677.23" class="st0" width="399" height="366"/>
	<path d="M2069.46,677.73v365h-398v-365H2069.46 M2070.46,676.73h-400v367h400V676.73L2070.46,676.73z"/>
</g>
<g>
	<rect x="1687.96" y="677.23" transform="matrix(0.7071 -0.7071 0.7071 0.7071 -60.2864 1574.9197)" width="366" height="366"/>
	<path d="M1870.96,602.14l258.09,258.09l-258.09,258.09l-258.09-258.09L1870.96,602.14 M1870.96,600.72l-259.51,259.51
		l259.51,259.51l259.51-259.51L1870.96,600.72L1870.96,600.72z"/>
</g>
<g>
	
		<rect x="1730.99" y="720.16" transform="matrix(0.7408 -0.6717 0.6717 0.7408 -92.853 1479.8528)" class="st1" width="280.12" height="280.16"/>
	<path d="M1880.68,663.09l187.52,206.79l-206.77,187.5l-187.52-206.79L1880.68,663.09 M1880.75,661.68L1672.5,850.52l188.86,208.28
		l208.25-188.84L1880.75,661.68L1880.75,661.68z"/>
</g>
<g>
	<path d="M1868.76,961.94c-20.84,0-40.82-8.85-54.81-24.28l-38.92-42.92c-27.39-30.21-25.1-77.07,5.11-104.47l42.84-38.85
		c13.63-12.36,31.27-19.17,49.66-19.17c20.84,0,40.82,8.85,54.81,24.28l38.92,42.92c13.27,14.63,20.05,33.56,19.08,53.29
		c-0.96,19.73-9.56,37.91-24.19,51.18l-42.84,38.85C1904.79,955.13,1887.15,961.94,1868.76,961.94z"/>
	<path d="M1872.64,732.76c20.7,0,40.54,8.79,54.43,24.11l38.92,42.92c27.21,30.01,24.93,76.55-5.07,103.76l-42.84,38.85
		c-13.54,12.28-31.06,19.04-49.32,19.04c-20.7,0-40.54-8.79-54.44-24.11l-38.92-42.92c-27.21-30.01-24.93-76.55,5.07-103.76
		l42.84-38.85C1836.85,739.52,1854.37,732.76,1872.64,732.76L1872.64,732.76 M1872.63,731.76c-17.84,0-35.74,6.37-49.99,19.3
		l-42.84,38.85c-30.46,27.62-32.76,74.71-5.14,105.17l38.92,42.92c14.7,16.21,34.9,24.44,55.18,24.44c17.84,0,35.74-6.37,49.99-19.3
		l42.84-38.85c30.46-27.62,32.76-74.71,5.14-105.17l-38.92-42.92C1913.11,739.99,1892.91,731.76,1872.63,731.76L1872.63,731.76z"/>
</g>
<g>
	<rect x="1804.17" y="784.88" class="st2" width="127" height="127"/>
	<path d="M1930.67,785.38v126h-126v-126H1930.67 M1931.67,784.38h-128v128h128V784.38L1931.67,784.38z"/>
</g>
<g>
	<rect x="1343.62" y="1028.12" class="st0" width="399" height="366"/>
	<path d="M1742.12,1028.62v365h-398v-365H1742.12 M1743.12,1027.62h-400v367h400V1027.62L1743.12,1027.62z"/>
</g>
<g>
	<rect x="1360.62" y="1028.12" transform="matrix(0.7071 -0.7071 0.7071 0.7071 -404.2799 1446.2318)" width="366" height="366"/>
	<path d="M1543.62,953.03l258.09,258.09l-258.09,258.09l-258.09-258.09L1543.62,953.03 M1543.62,951.62l-259.51,259.51
		l259.51,259.51l259.51-259.51L1543.62,951.62L1543.62,951.62z"/>
</g>
<g>
	
		<rect x="1403.65" y="1071.05" transform="matrix(0.7408 -0.6717 0.6717 0.7408 -413.4137 1350.9244)" class="st1" width="280.12" height="280.16"/>
	<path d="M1553.34,1013.99l187.52,206.79l-206.77,187.5l-187.52-206.79L1553.34,1013.99 M1553.41,1012.57l-208.25,188.84
		l188.86,208.28l208.25-188.84L1553.41,1012.57L1553.41,1012.57z"/>
</g>
<g>
	<path d="M1540.98,1327.49c-19.03,0-37.27-8.08-50.05-22.17l-47.56-52.44c-25.01-27.58-22.92-70.38,4.66-95.39l52.36-47.48
		c12.45-11.29,28.55-17.51,45.34-17.51c19.03,0,37.27,8.08,50.05,22.17l47.56,52.44c12.12,13.36,18.31,30.64,17.42,48.66
		c-0.88,18.02-8.72,34.61-22.09,46.73l-52.36,47.48C1573.87,1321.27,1557.77,1327.49,1540.98,1327.49z"/>
	<path d="M1545.74,1092v1h0c18.89,0,36.99,8.02,49.67,22l47.56,52.44c24.83,27.38,22.75,69.86-4.63,94.68l-52.36,47.48
		c-12.36,11.21-28.34,17.38-45.01,17.38c-18.89,0-37-8.02-49.68-22l-47.56-52.44c-24.83-27.38-22.75-69.86,4.63-94.68l52.36-47.48
		c12.36-11.2,28.34-17.38,45.01-17.38L1545.74,1092 M1545.74,1092c-16.3,0-32.65,5.82-45.68,17.64l-52.36,47.48
		c-27.83,25.24-29.94,68.26-4.7,96.1l47.56,52.44c13.43,14.81,31.89,22.33,50.42,22.33c16.3,0,32.65-5.82,45.68-17.64l52.36-47.48
		c27.83-25.24,29.94-68.26,4.7-96.1l-47.56-52.44C1582.73,1099.52,1564.27,1092,1545.74,1092L1545.74,1092z"/>
</g>
<g>
	<rect x="1481.62" y="1146.12" class="st2" width="127" height="127"/>
	<path d="M1608.12,1146.62v126h-126v-126H1608.12 M1609.12,1145.62h-128v128h128V1145.62L1609.12,1145.62z"/>
</g>
<g>
	<rect x="2039.62" y="1034.12" class="st0" width="399" height="366"/>
	<path d="M2438.12,1034.62v365h-398v-365H2438.12 M2439.12,1033.62h-400v367h400V1033.62L2439.12,1033.62z"/>
</g>
<g>
	<rect x="2074.4" y="1034.48" transform="matrix(0.7071 -0.7071 0.7071 0.7071 -199.7122 1952.8163)" width="366" height="366"/>
	<path d="M2257.4,959.39l258.09,258.09l-258.09,258.09l-258.09-258.09L2257.4,959.39 M2257.4,957.97l-259.51,259.51l259.51,259.51
		l259.51-259.51L2257.4,957.97L2257.4,957.97z"/>
</g>
<g>
	
		<rect x="2117.44" y="1070.41" transform="matrix(0.7408 -0.6717 0.6717 0.7408 -227.9581 1830.2354)" class="st1" width="280.12" height="280.16"/>
	<path d="M2267.12,1013.34l187.52,206.79l-206.77,187.5l-187.52-206.79L2267.12,1013.34 M2267.19,1011.93l-208.25,188.84
		l188.86,208.28l208.25-188.84L2267.19,1011.93L2267.19,1011.93z"/>
</g>
<g>
	<path d="M2260.24,1355.01c-20.96,0-41.06-8.9-55.13-24.42l-38.34-42.28c-13.35-14.72-20.16-33.76-19.19-53.6
		s9.61-38.13,24.33-51.47l42.2-38.27c13.71-12.44,31.45-19.28,49.95-19.28c20.96,0,41.06,8.9,55.13,24.42l38.34,42.28
		c13.35,14.72,20.16,33.76,19.19,53.6c-0.97,19.85-9.61,38.13-24.33,51.48l-42.2,38.27
		C2296.47,1348.17,2278.73,1355.01,2260.24,1355.01z"/>
	<path d="M2264.05,1126.19c20.82,0,40.78,8.84,54.75,24.26l38.34,42.28c13.26,14.62,20.03,33.53,19.07,53.24
		c-0.96,19.71-9.55,37.87-24.17,51.13l-42.2,38.27c-13.62,12.35-31.24,19.15-49.61,19.15c-20.82,0-40.78-8.84-54.76-24.26
		l-38.34-42.28c-13.26-14.62-20.03-33.53-19.07-53.24c0.96-19.71,9.55-37.87,24.17-51.13l42.2-38.27
		C2228.06,1132.99,2245.68,1126.19,2264.05,1126.19L2264.05,1126.19 M2264.05,1125.19c-17.94,0-35.95,6.41-50.28,19.41l-42.2,38.27
		c-30.64,27.78-32.95,75.14-5.17,105.78l38.34,42.28c14.78,16.3,35.1,24.58,55.5,24.58c17.94,0,35.95-6.41,50.28-19.41l42.2-38.27
		c30.64-27.78,32.95-75.14,5.17-105.78l-38.34-42.28C2304.77,1133.47,2284.45,1125.18,2264.05,1125.19L2264.05,1125.19z"/>
</g>
<g>
	<rect x="2200.62" y="1175.12" class="st2" width="127" height="127"/>
	<path d="M2327.12,1175.62v126h-126v-126H2327.12 M2328.12,1174.62h-128v128h128V1174.62L2328.12,1174.62z"/>
</g>
<g>
	<rect x="1692.4" y="1392.48" class="st0" width="399" height="366"/>
	<path d="M2090.9,1392.98v365h-398v-365H2090.9 M2091.9,1391.98h-400v367h400V1391.98L2091.9,1391.98z"/>
</g>
<g>
	<rect x="1709.4" y="1392.48" transform="matrix(0.7071 -0.7071 0.7071 0.7071 -559.7621 1799.5826)" width="366" height="366"/>
	<path d="M1892.4,1317.39l258.09,258.09l-258.09,258.09l-258.09-258.09L1892.4,1317.39 M1892.4,1315.97l-259.51,259.51
		l259.51,259.51l259.51-259.51L1892.4,1315.97L1892.4,1315.97z"/>
</g>
<g>
	
		<rect x="1750.44" y="1437.41" transform="matrix(0.7408 -0.6717 0.6717 0.7408 -569.6196 1678.8318)" class="st3" width="280.12" height="280.16"/>
	<path d="M1900.12,1380.34l187.52,206.79l-206.77,187.5l-187.52-206.79L1900.12,1380.34 M1900.19,1378.93l-208.25,188.84
		l188.86,208.28l208.25-188.84L1900.19,1378.93L1900.19,1378.93z"/>
</g>
<g>
	<path d="M1888.3,1683.68c-25.29,0-49.53-10.74-66.5-29.46l-17.72-19.54c-16.1-17.76-24.33-40.72-23.16-64.66
		c1.17-23.94,11.59-46,29.35-62.1l19.46-17.64c16.54-15,37.94-23.26,60.26-23.26c25.29,0,49.53,10.74,66.5,29.46l17.72,19.54
		c33.24,36.66,30.46,93.52-6.2,126.76l-19.46,17.64C1932.01,1675.42,1910.61,1683.68,1888.3,1683.68z"/>
	<path d="M1889.99,1467.52c25.14,0,49.25,10.68,66.13,29.29l17.72,19.54c33.05,36.45,30.29,93-6.16,126.05l-19.46,17.64
		c-16.45,14.92-37.73,23.13-59.92,23.13c-25.15,0-49.25-10.68-66.13-29.29l-17.72-19.54c-33.05-36.45-30.29-93,6.16-126.05
		l19.46-17.64C1846.51,1475.73,1867.79,1467.52,1889.99,1467.52L1889.99,1467.52 M1889.98,1466.52c-21.62,0-43.31,7.73-60.59,23.39
		l-19.46,17.64c-36.92,33.48-39.71,90.55-6.23,127.47l17.72,19.54c17.81,19.64,42.3,29.62,66.88,29.62
		c21.62,0,43.31-7.73,60.59-23.39l19.46-17.64c36.92-33.48,39.71-90.55,6.23-127.47l-17.72-19.54
		C1939.05,1476.5,1914.56,1466.52,1889.98,1466.52L1889.98,1466.52z"/>
</g>
<g>
	<rect x="1825.62" y="1509.12" class="st2" width="127" height="127"/>
	<path d="M1952.12,1509.62v126h-126v-126H1952.12 M1953.12,1508.62h-128v128h128V1508.62L1953.12,1508.62z"/>
</g>
<g>
	<rect x="1707.4" y="679.48" class="st0" width="399" height="366"/>
	<path d="M2105.9,679.98v365h-398v-365H2105.9 M2106.9,678.98h-400v367h400V678.98L2106.9,678.98z"/>
</g>
<g>
	<rect x="1724.4" y="679.48" transform="matrix(0.7071 -0.7071 0.7071 0.7071 -51.2019 1601.3518)" width="366" height="366"/>
	<path d="M1907.4,604.39l258.09,258.09l-258.09,258.09l-258.09-258.09L1907.4,604.39 M1907.4,602.97l-259.51,259.51l259.51,259.51
		l259.51-259.51L1907.4,602.97L1907.4,602.97z"/>
</g>
<g>
	
		<rect x="1767.44" y="722.41" transform="matrix(0.7408 -0.6717 0.6717 0.7408 -84.9178 1504.9163)" class="st1" width="280.12" height="280.16"/>
	<path d="M1917.12,665.34l187.52,206.79l-206.77,187.5l-187.52-206.79L1917.12,665.34 M1917.19,663.93l-208.25,188.84l188.86,208.28
		l208.25-188.84L1917.19,663.93L1917.19,663.93z"/>
</g>
<g>
	<path d="M1905.21,964.19c-20.84,0-40.82-8.85-54.81-24.28l-38.92-42.92c-27.39-30.21-25.1-77.07,5.11-104.47l42.84-38.85
		c13.63-12.36,31.27-19.17,49.66-19.17c20.84,0,40.82,8.85,54.81,24.28l38.92,42.92c13.27,14.63,20.05,33.56,19.08,53.29
		c-0.96,19.73-9.55,37.91-24.19,51.18l-42.84,38.85C1941.23,957.38,1923.6,964.19,1905.21,964.19z"/>
	<path d="M1909.08,735.01c20.7,0,40.54,8.79,54.43,24.11l38.92,42.92c27.21,30.01,24.93,76.55-5.07,103.76l-42.84,38.85
		c-13.54,12.28-31.06,19.04-49.32,19.04c-20.7,0-40.54-8.79-54.44-24.11l-38.92-42.92c-27.21-30.01-24.93-76.55,5.07-103.76
		l42.84-38.85C1873.3,741.77,1890.81,735.01,1909.08,735.01L1909.08,735.01 M1909.08,734.01c-17.84,0-35.74,6.37-49.99,19.3
		l-42.84,38.85c-30.46,27.62-32.76,74.71-5.14,105.17l38.92,42.92c14.7,16.21,34.9,24.44,55.18,24.44c17.84,0,35.74-6.37,49.99-19.3
		l42.84-38.85c30.46-27.62,32.76-74.71,5.14-105.17l-38.92-42.92C1949.56,742.24,1929.36,734.01,1909.08,734.01L1909.08,734.01z"/>
</g>
<g>
	<rect x="1840.62" y="787.12" class="st2" width="127" height="127"/>
	<path d="M1967.12,787.62v126h-126v-126H1967.12 M1968.12,786.62h-128v128h128V786.62L1968.12,786.62z"/>
</g>
<g>
	<rect x="-342.83" y="1025.88" class="st0" width="399" height="366"/>
	<path d="M55.67,1026.38v365h-398v-365H55.67 M56.67,1025.38h-400v367h400V1025.38L56.67,1025.38z"/>
</g>
<g>
	<rect x="-325.83" y="1025.87" transform="matrix(0.7071 -0.7071 0.7071 0.7071 -896.6386 253.0756)" width="366" height="366"/>
	<path d="M-142.83,950.78l258.09,258.09l-258.09,258.09l-258.09-258.09L-142.83,950.78 M-142.83,949.37l-259.51,259.51
		l259.51,259.51l259.51-259.51L-142.83,949.37L-142.83,949.37z"/>
</g>
<g>
	
		<rect x="-282.79" y="1068.8" transform="matrix(0.7408 -0.6717 0.6717 0.7408 -849.056 217.4822)" class="st1" width="280.12" height="280.16"/>
	<path d="M-133.11,1011.74l187.52,206.79l-206.77,187.5l-187.52-206.79L-133.11,1011.74 M-133.04,1010.32l-208.25,188.84
		l188.86,208.28L55.83,1218.6L-133.04,1010.32L-133.04,1010.32z"/>
</g>
<g>
	<path d="M-145.47,1325.24c-19.03,0-37.27-8.08-50.05-22.17l-47.56-52.44c-25.01-27.58-22.92-70.38,4.66-95.39l52.36-47.48
		c12.45-11.29,28.55-17.51,45.34-17.51c19.03,0,37.27,8.08,50.05,22.17l47.56,52.44c12.12,13.36,18.31,30.64,17.43,48.66
		c-0.88,18.02-8.72,34.61-22.09,46.73l-52.36,47.48C-112.58,1319.02-128.68,1325.24-145.47,1325.24z"/>
	<path d="M-140.7,1089.75v1h0c18.89,0,36.99,8.02,49.67,22l47.56,52.44c12.03,13.26,18.17,30.42,17.3,48.3
		c-0.87,17.88-8.66,34.36-21.92,46.38l-52.36,47.48c-12.36,11.21-28.34,17.38-45.01,17.38c-18.89,0-37-8.02-49.68-22l-47.56-52.44
		c-24.83-27.38-22.75-69.86,4.63-94.68l52.36-47.48c12.36-11.2,28.34-17.38,45.01-17.38L-140.7,1089.75 M-140.71,1089.75
		c-16.3,0-32.65,5.82-45.68,17.64l-52.36,47.48c-27.83,25.24-29.94,68.26-4.7,96.1l47.56,52.44c13.43,14.81,31.89,22.33,50.42,22.33
		c16.3,0,32.65-5.82,45.68-17.64l52.36-47.48c27.83-25.24,29.94-68.26,4.7-96.1l-47.56-52.44
		C-103.72,1097.27-122.18,1089.75-140.71,1089.75L-140.71,1089.75z"/>
</g>
<g>
	<rect x="-204.83" y="1143.88" class="st2" width="127" height="127"/>
	<path d="M-78.33,1144.38v126h-126v-126H-78.33 M-77.33,1143.38h-128v128h128V1143.38L-77.33,1143.38z"/>
</g>
<g>
	<rect x="353.17" y="1031.88" class="st0" width="399" height="366"/>
	<path d="M751.67,1032.38v365h-398v-365H751.67 M752.67,1031.38h-400v367h400V1031.38L752.67,1031.38z"/>
</g>
<g>
	<rect x="387.96" y="1032.23" transform="matrix(0.7071 -0.7071 0.7071 0.7071 -692.0699 759.6596)" width="366" height="366"/>
	<path d="M570.96,957.14l258.09,258.09l-258.09,258.09l-258.09-258.09L570.96,957.14 M570.96,955.72l-259.51,259.51l259.51,259.51
		l259.51-259.51L570.96,955.72L570.96,955.72z"/>
</g>
<g>
	
		<rect x="430.99" y="1068.16" transform="matrix(0.7408 -0.6717 0.6717 0.7408 -663.5989 696.7948)" class="st1" width="280.12" height="280.16"/>
	<path d="M580.68,1011.09l187.52,206.79l-206.77,187.5l-187.52-206.79L580.68,1011.09 M580.75,1009.68L372.5,1198.52l188.86,208.28
		l208.25-188.84L580.75,1009.68L580.75,1009.68z"/>
</g>
<g>
	<path d="M573.79,1352.76c-20.96,0-41.06-8.9-55.13-24.42l-38.34-42.28c-27.55-30.39-25.25-77.52,5.14-105.08l42.2-38.27
		c13.71-12.44,31.45-19.28,49.95-19.28c20.96,0,41.06,8.9,55.13,24.42l38.34,42.28c13.35,14.72,20.16,33.76,19.19,53.6
		c-0.97,19.85-9.61,38.13-24.33,51.48l-42.2,38.27C610.03,1345.92,592.29,1352.76,573.79,1352.76z"/>
	<path d="M577.61,1123.94c20.82,0,40.78,8.84,54.75,24.26l38.34,42.28c13.26,14.62,20.03,33.53,19.07,53.24
		c-0.96,19.71-9.55,37.87-24.17,51.13l-42.2,38.27c-13.62,12.35-31.24,19.15-49.61,19.15c-20.82,0-40.78-8.84-54.76-24.26
		l-38.34-42.28c-13.26-14.62-20.03-33.53-19.07-53.24c0.96-19.71,9.55-37.87,24.17-51.13l42.2-38.27
		C541.61,1130.74,559.23,1123.94,577.61,1123.94L577.61,1123.94 M577.6,1122.94c-17.94,0-35.95,6.41-50.28,19.41l-42.2,38.27
		c-30.64,27.78-32.95,75.14-5.17,105.78l38.34,42.28c14.78,16.3,35.1,24.58,55.5,24.58c17.94,0,35.95-6.41,50.28-19.41l42.2-38.27
		c30.64-27.78,32.95-75.14,5.17-105.78l-38.34-42.28C618.32,1131.22,598,1122.93,577.6,1122.94L577.6,1122.94z"/>
</g>
<g>
	<rect x="514.17" y="1172.88" class="st2" width="127" height="127"/>
	<path d="M640.67,1173.38v126h-126v-126H640.67 M641.67,1172.38h-128v128h128V1172.38L641.67,1172.38z"/>
</g>
<g>
	<rect x="5.96" y="1390.23" class="st0" width="399" height="366"/>
	<path d="M404.46,1390.73v365h-398v-365H404.46 M405.46,1389.73h-400v367h400V1389.73L405.46,1389.73z"/>
</g>
<g>
	<rect x="22.96" y="1390.23" transform="matrix(0.7071 -0.7071 0.7071 0.7071 -1052.1211 606.4228)" width="366" height="366"/>
	<path d="M205.96,1315.14l258.09,258.09l-258.09,258.09l-258.09-258.09L205.96,1315.14 M205.96,1313.72l-259.51,259.51
		l259.51,259.51l259.51-259.51L205.96,1313.72L205.96,1313.72z"/>
</g>
<g>
	
		<rect x="63.99" y="1435.16" transform="matrix(0.7408 -0.6717 0.6717 0.7408 -1005.2589 545.3957)" class="st3" width="280.12" height="280.16"/>
	<path d="M213.68,1378.09l187.52,206.79l-206.77,187.5L6.91,1565.59L213.68,1378.09 M213.75,1376.68L5.5,1565.52l188.86,208.28
		l208.25-188.84L213.75,1376.68L213.75,1376.68z"/>
</g>
<g>
	<path d="M201.85,1681.43c-25.29,0-49.53-10.74-66.5-29.46l-17.72-19.54c-33.24-36.66-30.46-93.52,6.2-126.76l19.46-17.64
		c16.54-15,37.94-23.26,60.26-23.26c25.29,0,49.53,10.74,66.5,29.46l17.72,19.54c16.1,17.76,24.33,40.72,23.16,64.66
		c-1.17,23.94-11.59,45.99-29.35,62.1l-19.46,17.64C245.57,1673.17,224.17,1681.43,201.85,1681.43z"/>
	<path d="M203.54,1465.27c25.14,0,49.25,10.68,66.13,29.29l17.72,19.54c33.05,36.45,30.29,93-6.16,126.05l-19.46,17.64
		c-16.45,14.92-37.73,23.13-59.92,23.13c-25.15,0-49.25-10.68-66.13-29.29L118,1632.1c-16.01-17.66-24.19-40.49-23.03-64.3
		c1.16-23.81,11.53-45.74,29.19-61.75l19.46-17.64C160.07,1473.48,181.35,1465.27,203.54,1465.27L203.54,1465.27 M203.54,1464.27
		c-21.62,0-43.31,7.73-60.59,23.39l-19.46,17.64c-36.92,33.48-39.71,90.55-6.23,127.47l17.72,19.54
		c17.81,19.64,42.3,29.62,66.88,29.62c21.62,0,43.31-7.73,60.59-23.39l19.46-17.64c36.92-33.48,39.71-90.55,6.23-127.47
		l-17.72-19.54C252.6,1474.25,228.12,1464.27,203.54,1464.27L203.54,1464.27z"/>
</g>
<g>
	<rect x="139.17" y="1506.88" class="st2" width="127" height="127"/>
	<path d="M265.67,1507.38v126h-126v-126H265.67 M266.67,1506.38h-128v128h128V1506.38L266.67,1506.38z"/>
</g>
<g>
	<rect x="20.96" y="677.23" class="st0" width="399" height="366"/>
	<path d="M419.46,677.73v365h-398v-365H419.46 M420.46,676.73h-400v367h400V676.73L420.46,676.73z"/>
</g>
<g>
	<rect x="37.96" y="677.23" transform="matrix(0.7071 -0.7071 0.7071 0.7071 -543.5591 408.1946)" width="366" height="366"/>
	<path d="M220.96,602.14l258.09,258.09l-258.09,258.09L-37.14,860.23L220.96,602.14 M220.96,600.72L-38.55,860.23l259.51,259.51
		l259.51-259.51L220.96,600.72L220.96,600.72z"/>
</g>
<g>
	
		<rect x="80.99" y="720.16" transform="matrix(0.7408 -0.6717 0.6717 0.7408 -520.5579 371.4781)" class="st1" width="280.12" height="280.16"/>
	<path d="M230.68,663.09L418.2,869.89l-206.77,187.5L23.91,850.59L230.68,663.09 M230.75,661.68L22.5,850.52l188.86,208.28
		l208.25-188.84L230.75,661.68L230.75,661.68z"/>
</g>
<g>
	<path d="M218.76,961.94c-20.84,0-40.82-8.85-54.81-24.28l-38.92-42.92c-27.39-30.21-25.1-77.07,5.11-104.47l42.84-38.85
		c13.63-12.36,31.27-19.17,49.66-19.17c20.84,0,40.82,8.85,54.81,24.28l38.92,42.92c13.27,14.63,20.05,33.56,19.08,53.29
		c-0.96,19.73-9.56,37.91-24.19,51.18l-42.84,38.85C254.79,955.13,237.15,961.94,218.76,961.94z"/>
	<path d="M222.64,732.76c20.7,0,40.54,8.79,54.43,24.11l38.92,42.92c27.21,30.01,24.93,76.55-5.07,103.76l-42.84,38.85
		c-13.54,12.28-31.06,19.04-49.32,19.04c-20.7,0-40.54-8.79-54.44-24.11l-38.92-42.92c-27.21-30.01-24.93-76.55,5.07-103.76
		l42.84-38.85C186.85,739.52,204.37,732.76,222.64,732.76L222.64,732.76 M222.63,731.76c-17.84,0-35.74,6.37-49.99,19.3
		l-42.84,38.85c-30.46,27.62-32.76,74.71-5.14,105.17L163.58,938c14.7,16.21,34.9,24.44,55.18,24.44c17.84,0,35.74-6.37,49.99-19.3
		l42.84-38.85c30.46-27.62,32.76-74.71,5.14-105.17l-38.92-42.92C263.11,739.99,242.91,731.76,222.63,731.76L222.63,731.76z"/>
</g>
<g>
	<rect x="154.17" y="784.88" class="st2" width="127" height="127"/>
	<path d="M280.67,785.38v126h-126v-126H280.67 M281.67,784.38h-128v128h128V784.38L281.67,784.38z"/>
</g>
<g>
	<rect x="-306.38" y="1028.12" class="st0" width="399" height="366"/>
	<path d="M92.12,1028.62v365h-398v-365H92.12 M93.12,1027.62h-400v367h400V1027.62L93.12,1027.62z"/>
</g>
<g>
	<rect x="-289.38" y="1028.12" transform="matrix(0.7071 -0.7071 0.7071 0.7071 -887.5537 279.5056)" width="366" height="366"/>
	<path d="M-106.38,953.03l258.09,258.09l-258.09,258.09l-258.09-258.09L-106.38,953.03 M-106.38,951.62l-259.51,259.51
		l259.51,259.51l259.51-259.51L-106.38,951.62L-106.38,951.62z"/>
</g>
<g>
	
		<rect x="-246.35" y="1071.05" transform="matrix(0.7408 -0.6717 0.6717 0.7408 -841.1199 242.5481)" class="st1" width="280.12" height="280.16"/>
	<path d="M-96.66,1013.99l187.52,206.79l-206.77,187.5l-187.52-206.79L-96.66,1013.99 M-96.59,1012.57l-208.25,188.84l188.86,208.28
		l208.25-188.84L-96.59,1012.57L-96.59,1012.57z"/>
</g>
<g>
	<path d="M-109.02,1327.49c-19.03,0-37.27-8.08-50.05-22.17l-47.56-52.44c-25.01-27.58-22.92-70.38,4.66-95.39l52.36-47.48
		c12.45-11.29,28.55-17.51,45.34-17.51c19.03,0,37.27,8.08,50.05,22.17l47.56,52.44c12.12,13.36,18.31,30.64,17.42,48.66
		c-0.88,18.02-8.72,34.61-22.09,46.73l-52.36,47.48C-76.13,1321.27-92.23,1327.49-109.02,1327.49z"/>
	<path d="M-104.26,1092v1h0c18.89,0,36.99,8.02,49.67,22l47.56,52.44c24.83,27.38,22.75,69.86-4.63,94.68l-52.36,47.48
		c-12.36,11.21-28.34,17.38-45.01,17.38c-18.89,0-37-8.02-49.68-22l-47.56-52.44c-24.83-27.38-22.75-69.86,4.63-94.68l52.36-47.48
		c12.36-11.2,28.34-17.38,45.01-17.38L-104.26,1092 M-104.26,1092c-16.3,0-32.65,5.82-45.68,17.64l-52.36,47.48
		c-27.83,25.24-29.94,68.26-4.7,96.1l47.56,52.44c13.43,14.81,31.89,22.33,50.42,22.33c16.3,0,32.65-5.82,45.68-17.64l52.36-47.48
		c27.83-25.24,29.94-68.26,4.7-96.1l-47.56-52.44C-67.27,1099.52-85.73,1092-104.26,1092L-104.26,1092z"/>
</g>
<g>
	<rect x="-168.38" y="1146.12" class="st2" width="127" height="127"/>
	<path d="M-41.88,1146.62v126h-126v-126H-41.88 M-40.88,1145.62h-128v128h128V1145.62L-40.88,1145.62z"/>
</g>
<g>
	<rect x="389.62" y="1034.12" class="st0" width="399" height="366"/>
	<path d="M788.12,1034.62v365h-398v-365H788.12 M789.12,1033.62h-400v367h400V1033.62L789.12,1033.62z"/>
</g>
<g>
	<rect x="424.4" y="1034.48" transform="matrix(0.7071 -0.7071 0.7071 0.7071 -682.986 786.09)" width="366" height="366"/>
	<path d="M607.4,959.39l258.09,258.09L607.4,1475.58l-258.09-258.09L607.4,959.39 M607.4,957.97l-259.51,259.51l259.51,259.51
		l259.51-259.51L607.4,957.97L607.4,957.97z"/>
</g>
<g>
	
		<rect x="467.44" y="1070.41" transform="matrix(0.7408 -0.6717 0.6717 0.7408 -655.663 721.8606)" class="st1" width="280.12" height="280.16"/>
	<path d="M617.12,1013.34l187.52,206.79l-206.77,187.5l-187.52-206.79L617.12,1013.34 M617.19,1011.93l-208.25,188.84l188.86,208.28
		l208.25-188.84L617.19,1011.93L617.19,1011.93z"/>
</g>
<g>
	<path d="M610.24,1355.01c-20.96,0-41.06-8.9-55.13-24.42l-38.34-42.28c-13.35-14.72-20.16-33.76-19.19-53.6s9.61-38.13,24.33-51.47
		l42.2-38.27c13.71-12.44,31.45-19.28,49.95-19.28c20.96,0,41.06,8.9,55.13,24.42l38.34,42.28c13.35,14.72,20.16,33.76,19.19,53.6
		c-0.97,19.85-9.61,38.13-24.33,51.48l-42.2,38.27C646.47,1348.17,628.73,1355.01,610.24,1355.01z"/>
	<path d="M614.05,1126.19c20.82,0,40.78,8.84,54.75,24.26l38.34,42.28c13.26,14.62,20.03,33.53,19.07,53.24
		c-0.96,19.71-9.55,37.87-24.17,51.13l-42.2,38.27c-13.62,12.35-31.24,19.15-49.61,19.15c-20.82,0-40.78-8.84-54.76-24.26
		l-38.34-42.28c-13.26-14.62-20.03-33.53-19.07-53.24c0.96-19.71,9.55-37.87,24.17-51.13l42.2-38.27
		C578.06,1132.99,595.68,1126.19,614.05,1126.19L614.05,1126.19 M614.05,1125.19c-17.94,0-35.95,6.41-50.28,19.41l-42.2,38.27
		c-30.64,27.78-32.95,75.14-5.17,105.78l38.34,42.28c14.78,16.3,35.1,24.58,55.5,24.58c17.94,0,35.95-6.41,50.28-19.41l42.2-38.27
		c30.64-27.78,32.95-75.14,5.17-105.78l-38.34-42.28C654.77,1133.47,634.45,1125.18,614.05,1125.19L614.05,1125.19z"/>
</g>
<g>
	<rect x="550.62" y="1175.12" class="st2" width="127" height="127"/>
	<path d="M677.12,1175.62v126h-126v-126H677.12 M678.12,1174.62h-128v128h128V1174.62L678.12,1174.62z"/>
</g>
<g>
	<rect x="42.4" y="1392.48" class="st0" width="399" height="366"/>
	<path d="M440.9,1392.98v365h-398v-365H440.9 M441.9,1391.98h-400v367h400V1391.98L441.9,1391.98z"/>
</g>
<g>
	<rect x="59.4" y="1392.48" transform="matrix(0.7071 -0.7071 0.7071 0.7071 -1043.0381 632.8543)" width="366" height="366"/>
	<path d="M242.4,1317.39l258.09,258.09L242.4,1833.58l-258.09-258.09L242.4,1317.39 M242.4,1315.97l-259.51,259.51l259.51,259.51
		l259.51-259.51L242.4,1315.97L242.4,1315.97z"/>
</g>
<g>
	
		<rect x="100.44" y="1437.41" transform="matrix(0.7408 -0.6717 0.6717 0.7408 -997.3217 570.46)" class="st3" width="280.12" height="280.16"/>
	<path d="M250.12,1380.34l187.52,206.79l-206.77,187.5L43.36,1567.84L250.12,1380.34 M250.19,1378.93L41.94,1567.77l188.86,208.28
		l208.25-188.84L250.19,1378.93L250.19,1378.93z"/>
</g>
<g>
	<path d="M238.3,1683.68c-25.29,0-49.53-10.74-66.5-29.46l-17.72-19.54c-16.1-17.76-24.33-40.72-23.16-64.66
		c1.17-23.94,11.59-46,29.35-62.1l19.46-17.64c16.54-15,37.94-23.26,60.26-23.26c25.29,0,49.53,10.74,66.5,29.46l17.72,19.54
		c33.24,36.66,30.46,93.52-6.2,126.76l-19.46,17.64C282.01,1675.42,260.61,1683.68,238.3,1683.68z"/>
	<path d="M239.99,1467.52c25.14,0,49.25,10.68,66.13,29.29l17.72,19.54c33.05,36.45,30.29,93-6.16,126.05l-19.46,17.64
		c-16.45,14.92-37.73,23.13-59.92,23.13c-25.15,0-49.25-10.68-66.13-29.29l-17.72-19.54c-33.05-36.45-30.29-93,6.16-126.05
		l19.46-17.64C196.51,1475.73,217.79,1467.52,239.99,1467.52L239.99,1467.52 M239.98,1466.52c-21.62,0-43.31,7.73-60.59,23.39
		l-19.46,17.64c-36.92,33.48-39.71,90.55-6.23,127.47l17.72,19.54c17.81,19.64,42.3,29.62,66.88,29.62
		c21.62,0,43.31-7.73,60.59-23.39l19.46-17.64c36.92-33.48,39.71-90.55,6.23-127.47l-17.72-19.54
		C289.05,1476.5,264.56,1466.52,239.98,1466.52L239.98,1466.52z"/>
</g>
<g>
	<rect x="175.62" y="1509.12" class="st2" width="127" height="127"/>
	<path d="M302.12,1509.62v126h-126v-126H302.12 M303.12,1508.62h-128v128h128V1508.62L303.12,1508.62z"/>
</g>
<g>
	<rect x="57.4" y="679.48" class="st0" width="399" height="366"/>
	<path d="M455.9,679.98v365h-398v-365H455.9 M456.9,678.98h-400v367h400V678.98L456.9,678.98z"/>
</g>
<g>
	<rect x="74.4" y="679.48" transform="matrix(0.7071 -0.7071 0.7071 0.7071 -534.4757 434.6256)" width="366" height="366"/>
	<path d="M257.4,604.39L515.5,862.48L257.4,1120.58L-0.69,862.48L257.4,604.39 M257.4,602.97L-2.11,862.48l259.51,259.51
		l259.51-259.51L257.4,602.97L257.4,602.97z"/>
</g>
<g>
	
		<rect x="117.44" y="722.41" transform="matrix(0.7408 -0.6717 0.6717 0.7408 -512.6213 396.5429)" class="st1" width="280.12" height="280.16"/>
	<path d="M267.12,665.34l187.52,206.79l-206.77,187.5L60.36,852.84L267.12,665.34 M267.19,663.93L58.94,852.77l188.86,208.28
		l208.25-188.84L267.19,663.93L267.19,663.93z"/>
</g>
<g>
	<path d="M255.21,964.19c-20.84,0-40.82-8.85-54.81-24.28l-38.92-42.92c-27.39-30.21-25.1-77.07,5.11-104.47l42.84-38.85
		c13.63-12.36,31.27-19.17,49.66-19.17c20.84,0,40.82,8.85,54.81,24.28l38.92,42.92c13.27,14.63,20.05,33.56,19.08,53.29
		c-0.96,19.73-9.55,37.91-24.19,51.18l-42.84,38.85C291.23,957.38,273.6,964.19,255.21,964.19z"/>
	<path d="M259.08,735.01c20.7,0,40.54,8.79,54.43,24.11l38.92,42.92c27.21,30.01,24.93,76.55-5.07,103.76l-42.84,38.85
		c-13.54,12.28-31.06,19.04-49.32,19.04c-20.7,0-40.54-8.79-54.44-24.11l-38.92-42.92c-27.21-30.01-24.93-76.55,5.07-103.76
		l42.84-38.85C223.3,741.77,240.81,735.01,259.08,735.01L259.08,735.01 M259.08,734.01c-17.84,0-35.74,6.37-49.99,19.3l-42.84,38.85
		c-30.46,27.62-32.76,74.71-5.14,105.17l38.92,42.92c14.7,16.21,34.9,24.44,55.18,24.44c17.84,0,35.74-6.37,49.99-19.3l42.84-38.85
		c30.46-27.62,32.76-74.71,5.14-105.17l-38.92-42.92C299.56,742.24,279.36,734.01,259.08,734.01L259.08,734.01z"/>
</g>
<g>
	<rect x="190.62" y="787.12" class="st2" width="127" height="127"/>
	<path d="M317.12,787.62v126h-126v-126H317.12 M318.12,786.62h-128v128h128V786.62L318.12,786.62z"/>
</g>
</svg>
